<?xml version="1.0" encoding="UTF-8" ?>
<!DOCTYPE svg PUBLIC "-//W3C//DTD SVG 1.1//EN" "http://www.w3.org/Graphics/SVG/1.1/DTD/svg11.dtd">
<svg width="1002pt" height="1134pt" viewBox="0 0 1002 1134" version="1.1" xmlns="http://www.w3.org/2000/svg">
<path fill="#ffffff" stroke="#ffffff" stroke-width="0.09375" opacity="1.00" d=" M 0.00 0.00 L 545.65 0.00 C 542.89 6.39 541.75 13.31 539.56 19.89 C 537.57 25.74 535.96 31.73 533.47 37.40 C 530.69 44.61 527.88 51.95 523.25 58.20 C 517.91 65.21 509.02 68.50 500.49 69.25 C 492.36 70.00 484.12 69.92 476.03 68.79 C 465.69 68.36 455.32 68.60 445.00 67.77 C 423.46 68.72 401.80 69.51 380.58 73.63 C 369.40 74.88 358.53 77.88 347.56 80.25 C 291.86 94.29 239.37 120.11 193.34 154.35 C 187.90 158.59 182.44 162.79 176.95 166.96 C 147.62 191.19 121.05 218.75 97.90 248.94 C 62.41 296.74 35.49 350.97 19.64 408.41 C 14.64 425.51 11.21 443.00 7.76 460.45 C 5.93 474.95 3.70 489.40 2.51 503.96 C 2.54 508.39 1.96 512.78 1.64 517.19 C 1.66 529.78 -0.03 542.35 0.94 554.94 C 1.60 559.94 1.38 564.99 1.49 570.03 C 3.73 601.76 7.28 633.58 15.25 664.45 C 18.08 677.10 22.14 689.45 25.95 701.83 C 33.76 724.85 43.13 747.32 53.97 769.08 C 67.29 794.15 82.17 818.44 99.46 841.00 C 112.21 856.96 125.27 872.76 139.93 887.02 C 155.83 903.25 173.14 918.05 191.15 931.88 C 216.86 951.80 244.93 968.60 274.13 982.88 C 298.77 994.56 324.31 1004.55 350.88 1010.86 C 354.92 1011.70 358.96 1012.55 362.95 1013.63 C 338.52 1004.97 314.55 994.81 292.07 981.85 C 285.25 978.11 278.37 974.47 271.95 970.07 C 266.08 966.05 259.37 963.23 254.11 958.38 C 260.70 961.54 266.93 965.43 273.70 968.25 C 283.07 972.18 292.21 976.69 301.94 979.71 C 317.00 984.31 331.90 989.49 347.18 993.35 C 354.00 995.57 361.11 996.67 367.95 998.83 C 362.34 995.96 356.28 994.25 350.46 991.91 C 334.53 985.80 318.54 979.79 302.99 972.76 C 275.15 960.12 248.85 944.07 224.70 925.33 C 219.21 920.56 212.97 916.61 207.97 911.30 C 212.65 914.12 216.79 917.72 221.39 920.65 C 243.09 934.45 265.93 946.51 289.83 956.02 C 292.38 957.19 294.98 958.28 297.58 959.34 C 303.51 961.94 309.69 963.88 315.84 965.87 C 322.27 967.92 328.67 970.10 335.03 972.38 C 348.56 976.42 362.15 980.27 375.86 983.65 C 374.61 982.86 373.38 982.02 371.97 981.57 C 353.54 975.27 335.68 967.39 318.17 958.87 C 313.51 956.36 308.88 953.82 304.14 951.46 C 300.93 949.81 297.81 948.01 294.65 946.29 C 279.50 937.34 264.30 928.40 250.20 917.86 C 229.53 903.16 210.04 886.82 191.84 869.16 C 187.33 864.64 182.40 860.55 178.34 855.60 C 160.45 836.90 143.84 816.94 129.13 795.64 C 103.12 758.06 82.08 717.03 67.34 673.75 C 62.23 659.31 58.38 644.48 54.34 629.72 C 47.25 600.31 43.11 570.22 41.58 540.03 C 41.46 531.67 41.34 523.32 40.81 514.99 C 41.69 506.02 41.16 496.97 41.97 488.00 C 43.93 457.69 48.33 427.48 56.33 398.14 C 68.97 350.99 89.27 305.88 116.18 265.15 C 153.22 210.41 202.60 163.95 259.82 130.82 C 298.15 108.54 339.97 92.33 383.26 82.77 C 414.50 76.48 446.62 72.70 478.46 75.89 C 486.72 76.83 494.73 79.41 502.29 82.79 C 509.22 85.81 514.81 91.99 516.58 99.39 C 519.66 110.99 518.74 123.13 518.47 134.99 C 518.41 142.81 516.92 150.55 517.23 158.38 C 519.45 151.63 520.43 144.53 522.93 137.84 C 526.44 126.28 529.36 114.22 535.97 103.95 C 540.29 96.98 547.94 92.53 556.02 91.58 C 570.57 89.95 584.98 93.83 598.75 98.15 C 617.14 103.60 634.72 111.43 651.93 119.85 C 636.43 110.30 619.62 103.14 602.90 96.07 C 589.42 90.98 575.61 86.73 562.53 80.65 C 556.11 77.92 550.08 73.70 546.42 67.65 C 543.38 62.64 542.86 56.66 542.41 50.95 C 541.96 37.68 542.40 24.36 544.10 11.19 C 544.54 7.44 544.65 3.61 545.89 0.00 L 1002.00 0.00 L 1002.00 1134.00 L 279.56 1134.00 C 284.43 1130.84 289.94 1128.87 295.16 1126.36 C 338.37 1104.58 374.11 1071.38 410.33 1039.91 L 411.44 1039.62 C 411.70 1039.98 412.23 1040.69 412.49 1041.05 C 415.21 1039.28 418.15 1041.79 421.01 1041.83 C 432.75 1043.32 444.28 1045.99 455.97 1047.77 C 470.55 1049.77 485.25 1050.65 499.95 1051.27 C 518.99 1050.65 538.11 1049.74 556.83 1045.91 C 576.25 1042.73 595.27 1037.35 613.66 1030.39 C 635.98 1021.45 657.87 1010.71 676.79 995.70 C 680.59 993.02 684.38 990.29 687.79 987.11 C 670.61 997.90 651.83 1005.90 632.94 1013.18 C 613.60 1019.75 593.91 1025.29 574.00 1029.88 C 535.87 1037.85 496.90 1041.57 457.96 1041.54 C 446.95 1041.40 435.90 1041.80 424.94 1040.61 C 420.87 1040.06 415.78 1041.52 412.74 1038.03 C 430.76 1021.80 450.12 1007.15 469.13 992.13 C 487.06 978.52 505.34 965.33 524.44 953.40 C 565.71 926.74 610.08 904.51 657.01 889.74 C 679.11 882.96 701.72 877.45 724.76 875.21 C 730.87 874.59 737.03 874.77 743.14 874.09 C 751.03 873.25 759.00 873.68 766.87 874.53 C 768.13 874.70 769.38 874.59 770.61 874.20 C 769.27 873.41 767.92 872.70 766.56 871.98 C 766.05 871.68 765.03 871.09 764.52 870.79 C 744.97 857.54 725.01 844.91 705.62 831.42 C 691.27 821.09 677.19 810.26 664.97 797.42 C 655.46 794.04 644.97 794.74 635.18 796.40 C 633.80 796.52 632.42 796.65 631.06 796.79 C 638.50 794.82 645.94 792.79 653.52 791.43 C 642.42 783.24 630.50 776.06 620.32 766.68 C 601.49 750.63 586.38 730.69 573.80 709.49 C 572.57 707.55 571.28 705.66 569.99 703.78 C 562.48 708.25 554.90 712.66 548.08 718.16 C 544.09 720.68 540.46 723.69 536.70 726.53 C 534.32 728.31 531.98 730.15 529.77 732.15 C 518.05 741.99 506.88 752.52 496.78 764.03 C 463.38 801.51 439.13 846.40 422.36 893.54 C 418.71 902.22 415.77 911.17 412.98 920.16 C 411.00 926.48 407.97 932.53 407.17 939.18 C 397.03 963.38 386.78 987.56 375.16 1011.10 C 364.12 1032.74 352.43 1054.17 337.91 1073.72 C 324.43 1092.31 309.64 1110.29 291.50 1124.55 C 287.64 1128.08 282.73 1130.23 279.06 1134.00 L 0.00 1134.00 L 0.00 0.00 M 556.22 168.23 C 553.53 169.35 551.34 171.34 549.06 173.10 C 537.37 183.36 528.64 196.65 522.63 210.92 C 519.20 219.06 515.77 227.24 513.29 235.72 C 517.97 234.66 520.56 230.09 524.62 228.03 C 526.20 235.49 527.04 243.14 529.11 250.53 C 529.88 254.94 529.47 259.48 530.14 263.91 C 528.82 265.47 527.72 267.19 526.79 269.00 C 524.27 272.37 521.56 275.60 518.25 278.23 C 517.25 279.57 515.01 280.82 515.27 282.61 C 518.19 283.80 521.14 284.95 523.96 286.38 C 524.33 286.42 525.05 286.50 525.41 286.55 C 526.22 287.47 527.16 288.22 528.26 288.78 C 544.82 297.11 560.33 307.56 574.39 319.64 L 574.75 319.83 C 582.18 326.50 589.84 332.95 596.52 340.41 C 599.22 340.33 601.93 340.35 604.64 340.51 L 604.63 339.79 C 608.81 334.20 613.72 329.16 618.04 323.67 C 621.66 323.93 625.28 324.21 628.89 324.65 C 636.26 325.89 642.75 329.93 648.63 334.36 C 656.48 340.65 665.80 345.80 675.97 346.71 C 688.22 347.52 698.81 339.69 706.82 331.25 C 698.91 332.76 690.74 333.24 682.83 331.46 C 669.21 329.36 657.95 320.62 644.73 317.25 C 639.01 315.33 632.93 315.25 627.00 314.56 C 622.68 314.11 618.41 316.00 614.16 315.27 C 613.16 313.48 612.20 311.66 611.39 309.78 C 622.52 310.57 634.00 308.44 643.49 302.39 C 659.14 293.78 667.72 276.26 670.05 259.11 C 671.26 246.60 670.17 233.71 665.54 221.95 C 664.86 220.68 664.73 218.57 663.02 218.25 C 660.15 220.31 656.97 221.85 654.00 223.76 C 646.54 228.29 637.86 230.04 630.04 233.78 C 621.32 237.55 612.85 241.93 605.04 247.35 C 597.14 252.89 589.36 258.79 583.30 266.38 C 579.99 269.69 578.01 274.12 574.57 277.26 C 574.67 278.37 574.15 279.29 573.56 280.16 C 586.26 288.91 598.27 299.25 606.52 312.45 C 604.22 311.99 603.11 309.53 601.32 308.25 C 597.98 304.77 594.51 301.41 590.93 298.18 C 588.85 296.32 586.87 294.34 584.65 292.66 C 580.64 289.41 576.46 286.37 572.23 283.43 C 568.36 280.85 563.56 279.23 560.79 275.33 C 564.79 275.05 568.22 277.40 571.76 278.89 C 572.63 278.01 573.96 277.44 574.36 276.17 C 577.26 268.81 582.32 262.44 588.10 257.11 C 598.71 246.25 612.52 239.20 626.55 233.81 C 633.15 231.17 640.22 229.76 646.58 226.53 C 652.03 223.19 657.22 219.46 662.78 216.29 C 660.19 209.76 656.11 203.85 651.19 198.85 C 639.18 186.79 622.97 178.70 605.95 177.25 C 600.02 177.32 593.85 176.47 588.15 178.54 C 584.10 179.87 579.64 180.40 576.15 183.02 C 572.04 186.36 568.49 190.30 565.01 194.27 C 554.29 207.94 546.12 224.78 547.16 242.54 C 546.77 242.58 545.97 242.66 545.58 242.70 C 545.14 239.46 544.18 236.28 544.34 232.98 C 544.00 223.91 548.02 215.52 551.70 207.48 C 559.90 191.03 572.77 177.19 587.79 166.72 C 594.42 161.06 602.55 157.29 609.01 151.51 C 590.44 152.49 571.51 157.27 556.22 168.23 M 516.63 238.70 L 516.52 239.12 C 513.66 240.60 511.22 242.70 508.93 244.92 C 507.51 246.79 505.41 248.12 504.29 250.21 C 503.56 251.50 502.97 252.86 502.40 254.23 C 500.30 256.34 500.28 259.47 499.58 262.19 C 499.95 262.69 500.68 263.70 501.05 264.20 C 500.60 264.25 499.71 264.34 499.26 264.39 C 499.35 267.93 499.10 271.49 499.44 275.03 C 499.48 276.79 501.52 276.70 502.73 277.06 C 503.36 277.03 504.61 276.97 505.23 276.94 C 505.62 278.29 506.67 279.38 507.70 280.31 C 509.33 280.09 510.83 279.05 511.90 277.83 C 517.07 274.44 521.15 269.67 524.82 264.76 C 526.75 262.43 525.12 259.26 525.52 256.55 C 525.34 253.18 524.84 249.81 523.87 246.58 C 523.90 242.52 523.01 238.47 522.21 234.50 C 520.25 235.78 518.38 237.17 516.63 238.70 M 376.98 281.82 C 343.16 293.02 311.84 311.53 285.54 335.54 C 275.07 344.62 265.42 354.70 257.33 365.96 C 275.23 353.58 297.22 347.16 318.95 347.63 C 317.03 348.16 315.03 348.17 313.06 348.30 C 297.62 350.03 282.85 355.67 269.43 363.35 C 261.77 368.18 253.98 373.15 248.05 380.10 C 244.56 384.33 240.89 388.50 238.41 393.44 C 233.59 401.97 231.48 411.77 230.69 421.43 C 229.94 429.51 230.44 437.62 231.90 445.59 C 233.18 455.76 236.71 465.49 240.78 474.84 C 234.15 466.01 225.79 458.55 216.45 452.68 C 211.06 449.44 205.27 446.53 198.96 445.74 C 193.96 445.88 191.92 450.98 189.72 454.64 C 179.85 473.87 175.36 495.55 174.45 517.02 C 174.03 540.85 182.02 565.71 199.57 582.43 C 205.86 587.99 213.10 592.63 220.92 595.73 C 210.64 590.22 202.54 581.51 196.00 572.00 C 184.04 553.63 180.89 530.23 185.19 509.04 C 185.73 527.65 193.16 546.22 206.15 559.65 C 217.73 572.18 233.18 581.14 249.93 584.54 C 252.67 585.00 255.30 585.85 257.94 586.69 C 235.85 574.85 222.51 550.47 220.45 525.96 C 220.06 514.91 220.54 503.74 223.35 493.00 C 224.49 509.86 232.33 526.90 246.21 536.96 C 246.33 541.32 246.51 545.70 247.26 550.01 C 248.17 554.19 247.19 558.75 249.21 562.69 C 253.86 570.51 261.44 575.88 267.27 582.72 C 271.41 587.38 271.42 594.03 271.48 599.90 C 268.53 619.74 262.71 639.04 256.54 658.08 C 255.36 661.60 258.82 663.94 261.25 665.74 C 269.12 671.19 279.04 670.84 287.91 673.42 C 290.06 673.79 290.72 676.24 291.47 677.96 C 293.14 681.81 292.43 686.10 292.75 690.17 C 293.01 692.53 295.26 693.81 297.01 695.05 C 300.63 697.13 304.53 699.24 308.86 698.69 C 309.00 697.47 308.70 696.17 307.49 695.64 C 304.07 693.52 300.18 692.07 297.38 689.08 C 297.63 682.50 297.97 674.38 292.47 669.70 C 287.28 666.85 281.08 667.16 275.43 665.88 C 270.70 664.95 265.27 663.78 262.39 659.54 C 261.71 656.70 263.48 653.90 264.14 651.18 C 269.56 634.12 274.36 616.77 276.92 599.03 C 277.79 593.58 276.58 587.91 273.94 583.10 C 270.19 575.82 263.64 570.67 258.34 564.58 C 255.34 561.86 254.52 557.72 254.09 553.88 C 252.67 546.85 252.31 539.69 251.29 532.60 C 250.03 516.82 247.77 501.03 248.85 485.14 C 249.98 485.64 251.04 488.35 252.35 486.61 C 253.09 477.95 255.12 469.47 257.30 461.07 C 260.82 448.99 264.96 436.84 271.95 426.29 C 284.96 432.44 295.08 443.22 303.01 455.01 C 313.23 469.42 320.48 485.62 329.07 501.00 C 338.91 519.38 350.10 537.32 364.84 552.21 C 375.87 564.15 389.17 573.80 403.33 581.70 C 403.52 582.01 403.89 582.64 404.08 582.95 C 407.59 599.92 409.84 617.19 409.78 634.51 C 409.27 637.68 409.60 640.91 409.27 644.10 C 408.68 645.64 408.66 647.31 408.59 648.95 C 408.46 655.09 406.68 661.02 405.22 666.94 C 404.59 667.90 403.87 668.80 403.16 669.72 L 403.54 670.43 L 404.03 670.76 C 405.58 669.83 405.35 667.75 406.14 666.37 C 411.40 657.24 415.21 647.18 416.88 636.78 L 417.47 636.36 C 418.86 626.71 421.39 617.11 420.55 607.26 C 420.76 607.26 421.19 607.26 421.40 607.26 C 422.21 610.90 423.08 614.54 424.25 618.09 C 433.00 647.40 439.43 677.47 442.55 707.90 C 443.63 718.26 444.92 728.61 444.82 739.05 C 445.78 754.02 445.15 769.14 442.41 783.91 C 439.58 777.62 435.86 771.73 433.87 765.08 C 430.71 756.91 430.24 748.10 428.75 739.56 C 428.26 733.49 427.51 727.45 427.21 721.36 C 427.01 721.59 426.60 722.05 426.40 722.28 C 406.12 734.22 387.22 748.50 366.11 759.01 C 360.75 761.31 354.93 764.53 348.93 762.91 C 342.63 761.73 337.03 756.93 335.46 750.64 C 332.71 740.94 331.67 730.65 327.33 721.45 C 324.39 716.74 318.15 715.56 315.07 711.00 C 313.68 707.70 313.55 704.03 313.36 700.51 C 312.78 700.39 311.62 700.14 311.04 700.02 C 309.11 700.86 309.77 703.34 309.54 705.02 C 309.71 708.02 309.08 711.39 310.96 714.00 C 313.93 718.10 318.85 720.14 322.09 723.99 C 323.85 725.97 324.82 728.51 325.55 731.03 C 327.48 738.58 328.70 746.30 330.55 753.88 C 332.98 764.02 343.80 770.62 353.93 769.61 C 363.36 768.21 371.69 763.27 380.07 759.04 C 388.16 755.14 395.68 750.10 404.09 746.87 C 407.96 747.20 411.77 748.61 413.99 751.98 C 419.74 760.33 423.65 769.76 428.52 778.62 C 431.96 786.79 436.48 794.53 439.45 802.86 C 438.53 807.94 437.47 813.09 435.37 817.85 C 435.10 817.77 434.55 817.62 434.28 817.55 C 434.61 816.73 434.94 815.92 435.26 815.12 C 436.09 809.75 434.17 804.52 434.60 799.17 C 427.72 807.73 422.42 817.38 417.38 827.09 C 404.24 854.40 397.02 884.15 392.28 913.95 C 391.59 917.81 390.91 921.83 391.65 925.72 C 391.20 925.20 390.77 924.68 390.35 924.16 C 391.38 930.84 388.95 937.45 389.29 944.16 C 388.44 945.45 388.82 947.05 388.71 948.52 C 388.85 948.53 389.14 948.54 389.28 948.54 C 389.32 947.30 389.38 946.07 389.45 944.85 L 390.27 944.24 C 391.72 935.59 394.49 927.26 397.31 918.98 C 401.66 905.03 407.07 891.44 413.01 878.10 C 416.96 869.69 420.18 860.94 424.74 852.83 C 428.79 845.48 432.47 837.94 436.40 830.54 C 439.54 823.86 443.98 817.91 447.27 811.32 C 456.43 796.41 465.99 781.68 477.36 768.34 C 483.37 760.43 490.53 753.55 497.28 746.31 C 516.82 727.39 538.13 709.97 562.23 697.14 C 563.84 696.21 565.54 695.39 567.40 695.09 C 566.82 690.55 563.80 686.56 563.30 681.92 C 571.28 697.60 580.23 712.92 591.51 726.51 C 610.10 749.88 634.17 768.23 659.54 783.66 C 675.31 793.00 691.86 800.88 708.21 809.12 C 729.39 819.92 749.99 833.06 765.14 851.72 C 772.52 861.37 779.39 871.95 781.70 884.09 C 783.82 893.47 782.40 903.16 780.81 912.49 C 780.07 916.83 778.03 920.83 777.33 925.16 C 776.11 926.23 775.73 927.78 775.44 929.32 C 774.99 930.11 774.61 930.95 774.29 931.82 C 774.93 930.93 775.54 930.02 776.11 929.10 C 784.73 912.65 789.87 894.17 790.24 875.61 C 790.98 868.92 790.86 862.12 790.35 855.42 C 789.39 840.91 786.09 826.63 781.56 812.83 C 773.41 789.61 761.44 767.50 745.13 748.99 C 759.08 757.88 771.68 768.85 783.23 780.68 C 789.95 787.39 796.23 794.55 801.60 802.40 C 815.10 821.10 824.91 842.99 827.04 866.12 C 828.21 876.44 827.38 886.81 826.21 897.09 C 821.37 922.67 810.12 946.83 794.84 967.83 C 783.76 983.75 770.01 997.56 755.95 1010.85 C 741.60 1024.21 726.19 1036.38 712.04 1049.96 C 699.94 1061.97 689.07 1075.55 682.20 1091.27 C 677.07 1102.53 673.51 1114.79 673.47 1127.23 C 674.95 1121.62 676.03 1115.86 678.36 1110.51 C 685.67 1093.71 697.76 1079.33 711.83 1067.75 C 726.04 1055.50 742.28 1045.98 758.12 1036.04 C 776.29 1025.17 794.11 1013.67 811.22 1001.19 C 826.63 989.78 840.89 976.91 854.04 962.97 C 865.71 950.13 876.81 936.62 885.62 921.62 C 895.30 905.97 902.47 888.78 906.98 870.95 C 909.86 859.84 910.35 848.32 910.50 836.91 C 914.12 853.70 916.78 870.80 916.71 888.02 C 917.65 922.41 909.12 957.06 892.16 987.01 C 882.72 1004.46 870.53 1020.43 856.11 1034.06 C 846.72 1043.14 835.87 1050.66 824.94 1057.59 C 843.95 1048.92 861.13 1036.61 876.67 1022.71 C 906.94 995.68 929.74 960.13 940.80 921.01 C 947.48 896.69 947.80 870.88 942.83 846.22 C 941.44 838.77 939.02 831.57 936.35 824.50 C 929.76 805.22 918.49 787.92 905.83 772.10 C 874.69 735.62 832.39 710.69 788.62 692.27 C 787.53 691.64 785.91 691.77 785.32 690.50 C 783.87 690.28 782.46 689.89 781.09 689.43 C 782.46 689.55 783.83 689.69 785.22 689.86 C 806.71 697.33 829.56 699.48 851.87 703.34 C 874.15 706.23 896.30 711.04 917.15 719.57 C 934.28 726.96 950.66 736.76 963.78 750.17 C 977.92 764.26 988.73 782.33 991.83 802.24 C 995.38 819.88 991.00 838.45 982.10 853.92 C 983.53 852.36 984.67 850.58 985.79 848.79 C 992.16 839.52 996.07 828.77 999.02 817.98 C 1001.53 809.05 1001.15 799.68 1000.81 790.51 C 1001.06 780.75 997.67 771.30 993.70 762.50 C 985.49 745.94 972.51 731.82 956.79 722.11 C 934.89 707.90 909.44 700.55 884.08 695.41 C 840.93 688.00 797.37 678.69 758.02 658.80 C 747.34 653.52 737.41 646.94 727.46 640.42 C 707.70 626.06 690.27 608.38 677.00 587.81 C 674.43 583.54 671.02 579.76 669.12 575.12 C 676.84 585.86 686.65 594.85 696.65 603.41 C 709.33 613.42 722.74 622.67 737.41 629.56 C 757.60 639.66 779.56 646.56 802.09 648.57 C 819.07 650.36 836.04 647.28 852.96 646.27 C 868.93 644.64 885.00 644.74 901.01 645.67 C 926.82 647.95 953.18 654.20 974.57 669.48 C 979.78 672.66 983.94 677.14 987.91 681.72 C 980.24 670.14 970.35 659.96 958.86 652.14 C 936.91 637.68 910.02 632.37 884.03 633.27 C 869.24 634.18 854.56 636.41 840.12 639.69 C 827.81 642.17 815.47 645.32 802.84 645.09 C 786.09 644.50 769.76 639.04 755.23 630.86 C 727.96 616.37 706.34 593.02 689.89 567.21 C 675.54 544.97 665.09 520.09 660.10 494.06 C 658.60 503.08 655.75 512.06 650.44 519.60 C 644.32 530.55 632.85 537.45 620.92 540.37 C 608.70 543.10 595.86 541.64 584.03 537.91 C 581.31 537.24 578.74 536.11 576.02 535.48 C 580.77 535.85 585.35 537.37 590.11 537.73 C 600.02 539.22 610.28 537.98 619.59 534.31 C 630.35 530.10 638.83 521.43 644.61 511.60 C 652.32 497.10 655.07 480.31 653.99 464.03 C 652.93 445.92 648.55 428.15 642.69 411.02 C 635.09 390.00 625.02 369.62 610.75 352.29 C 608.81 350.01 607.12 347.35 604.60 345.69 C 601.47 345.48 598.26 344.37 595.17 345.22 C 576.90 324.56 554.33 308.03 530.16 294.91 C 512.29 285.39 493.08 278.09 473.09 274.59 C 464.13 273.00 455.07 272.23 446.00 271.61 C 422.59 270.61 399.28 274.91 376.98 281.82 M 622.35 337.16 C 623.43 341.67 626.31 345.42 628.32 349.53 C 631.72 356.73 637.38 362.49 642.88 368.12 C 650.75 375.94 660.51 381.46 670.34 386.41 C 682.10 391.09 694.01 395.79 706.27 398.84 C 713.40 401.68 720.74 404.01 727.85 406.95 C 744.32 413.81 759.91 422.90 773.63 434.35 C 780.66 439.99 786.57 446.85 792.98 453.16 C 802.05 445.38 814.47 443.56 825.99 442.83 C 838.75 443.49 851.75 444.51 863.78 449.18 C 865.40 449.88 867.07 450.51 868.87 450.69 C 857.37 443.26 845.62 436.17 833.64 429.51 C 819.15 421.17 803.88 414.31 788.68 407.40 C 761.21 396.33 732.08 389.97 702.89 385.44 L 703.03 385.16 C 681.21 381.54 660.14 372.88 642.55 359.41 C 635.16 352.66 626.96 346.28 622.35 337.16 M 210.94 385.96 C 207.37 390.82 205.12 396.46 202.86 402.01 C 199.24 410.26 199.51 420.08 203.54 428.14 C 208.39 438.97 216.53 447.89 225.30 455.71 C 227.80 457.81 229.97 460.37 232.88 461.93 C 228.63 447.07 225.62 431.33 228.55 415.94 C 229.19 413.41 227.41 411.26 226.52 409.06 C 225.69 397.91 228.47 386.87 232.18 376.44 C 235.82 367.66 240.29 359.04 246.62 351.88 C 250.30 346.95 254.89 342.82 259.05 338.33 C 240.57 351.35 223.17 366.73 210.94 385.96 M 652.87 405.34 C 658.42 414.88 665.50 423.43 673.09 431.41 C 684.10 441.44 696.72 450.15 710.95 454.88 C 716.42 456.73 722.05 458.74 727.78 459.19 C 739.49 461.54 751.61 460.20 763.08 457.19 C 765.23 456.46 767.42 455.83 769.59 455.14 C 773.01 453.88 776.27 452.17 779.78 451.14 C 776.29 447.52 772.85 443.81 769.01 440.55 C 754.51 445.09 739.10 445.43 724.06 444.36 C 706.51 441.64 689.14 435.75 674.68 425.24 C 666.62 419.86 659.56 413.05 653.94 405.16 C 652.50 403.09 651.04 401.02 649.19 399.30 C 650.54 401.23 651.81 403.22 652.87 405.34 M 270.83 429.68 C 269.26 430.66 268.64 432.49 267.81 434.04 C 263.03 448.13 258.78 462.86 259.64 477.91 C 264.98 468.90 271.43 460.33 279.00 453.03 C 276.02 458.40 272.67 463.94 271.54 469.98 C 279.23 463.63 287.57 457.28 297.48 455.08 C 297.55 453.52 296.12 452.56 295.37 451.37 C 289.56 443.71 283.24 436.16 275.09 430.90 C 273.80 430.19 272.38 429.02 270.83 429.68 M 793.77 465.84 C 794.16 468.95 796.66 471.34 799.40 472.54 C 801.85 472.94 805.56 471.63 806.21 475.04 C 806.43 476.82 807.89 478.29 807.79 480.15 C 807.73 483.62 806.53 487.40 808.40 490.61 C 809.49 493.03 812.12 494.01 814.12 495.53 C 816.56 494.64 819.08 492.93 818.89 489.97 C 819.45 484.54 814.52 481.12 810.49 478.61 C 808.13 477.44 808.51 474.13 806.35 472.93 C 806.40 472.46 806.49 471.54 806.54 471.07 C 810.03 467.42 809.37 460.44 804.49 458.31 C 799.50 455.20 793.03 460.41 793.77 465.84 M 811.65 503.34 C 810.20 506.39 808.69 509.93 810.39 513.23 C 811.80 520.44 822.86 524.91 827.96 518.92 C 835.30 514.75 833.18 502.95 826.02 499.62 C 823.53 498.12 820.42 499.20 817.93 497.77 C 815.50 499.22 813.46 501.19 811.65 503.34 M 824.18 524.37 C 822.49 526.24 821.26 528.51 821.44 531.11 C 822.55 533.27 824.30 534.88 826.66 535.59 C 826.45 543.21 826.27 550.95 826.84 558.52 C 826.34 564.52 826.54 570.55 826.34 576.56 C 829.52 580.07 832.55 583.71 835.92 587.05 C 839.54 590.63 842.43 594.97 846.51 598.09 C 846.47 597.37 846.39 595.94 846.35 595.22 C 847.73 593.84 847.57 591.75 848.01 589.99 C 849.15 582.83 850.70 575.76 852.40 568.73 L 851.87 567.59 C 843.44 556.67 836.14 544.91 829.46 532.86 L 830.37 532.45 C 833.54 528.37 828.24 523.99 824.18 524.37 M 321.84 530.81 C 304.56 536.93 288.35 545.92 273.55 556.68 C 270.90 558.39 269.25 561.38 266.36 562.70 C 267.43 564.48 265.68 565.09 264.41 565.78 C 267.98 568.80 272.29 571.13 276.98 571.67 C 281.18 569.56 285.22 567.01 288.47 563.56 C 293.02 558.84 298.11 554.70 303.14 550.52 C 303.26 551.25 303.38 551.98 303.50 552.73 C 305.16 553.29 306.88 553.72 308.63 554.00 C 309.42 551.53 311.05 548.17 307.69 546.89 C 312.79 542.53 318.28 538.68 323.74 534.80 C 327.93 531.80 332.75 529.80 336.88 526.70 C 337.90 526.27 338.94 525.86 339.97 525.43 C 333.67 526.17 327.87 529.01 321.84 530.81 M 332.91 563.99 C 321.89 570.50 311.28 578.10 298.92 581.90 C 296.39 577.45 294.06 572.80 290.65 568.95 C 289.52 567.58 287.53 568.47 286.03 568.35 C 286.70 571.78 289.93 573.89 291.10 577.14 C 292.53 580.62 295.99 583.86 294.45 587.94 C 292.91 591.62 291.05 595.89 287.36 597.79 C 287.40 598.00 287.49 598.42 287.53 598.63 C 292.51 596.31 297.24 593.49 302.04 590.81 C 304.12 593.39 303.44 596.80 303.10 599.82 C 306.93 597.05 311.30 595.08 314.79 591.83 C 325.96 582.17 333.40 569.18 341.96 557.33 C 338.95 559.56 336.03 561.92 332.91 563.99 M 313.11 695.07 C 312.75 696.89 314.30 697.69 315.58 698.52 C 317.71 697.98 319.89 697.59 321.96 696.82 C 326.88 696.22 331.81 695.55 336.63 694.35 C 336.64 694.14 336.65 693.70 336.65 693.48 C 331.11 693.39 325.56 693.40 320.02 693.49 C 317.68 693.57 315.12 693.78 313.11 695.07 Z" />
<path fill="#b89960" stroke="#b89960" stroke-width="0.09375" opacity="1.00" d=" M 545.65 0.00 L 545.89 0.00 C 544.65 3.61 544.54 7.44 544.10 11.19 C 542.40 24.36 541.96 37.68 542.41 50.95 C 542.86 56.66 543.38 62.64 546.42 67.65 C 550.08 73.70 556.11 77.92 562.53 80.65 C 575.61 86.73 589.42 90.98 602.90 96.07 C 619.62 103.14 636.43 110.30 651.93 119.85 C 634.72 111.43 617.14 103.60 598.75 98.15 C 584.98 93.83 570.57 89.95 556.02 91.58 C 547.94 92.53 540.29 96.98 535.97 103.95 C 529.36 114.22 526.44 126.28 522.93 137.84 C 520.43 144.53 519.45 151.63 517.23 158.38 C 516.92 150.55 518.41 142.81 518.47 134.99 C 518.74 123.13 519.66 110.99 516.58 99.39 C 514.81 91.99 509.22 85.81 502.29 82.79 C 494.73 79.41 486.72 76.83 478.46 75.89 C 446.62 72.70 414.50 76.48 383.26 82.77 C 382.80 82.57 381.87 82.17 381.40 81.97 C 382.38 79.77 383.32 77.54 384.39 75.38 C 383.02 75.03 381.71 74.49 380.58 73.63 C 401.80 69.51 423.46 68.72 445.00 67.77 C 455.32 68.60 465.69 68.36 476.03 68.79 C 484.12 69.92 492.36 70.00 500.49 69.25 C 509.02 68.50 517.91 65.21 523.25 58.20 C 527.88 51.95 530.69 44.61 533.47 37.40 C 535.96 31.73 537.57 25.74 539.56 19.89 C 541.75 13.31 542.89 6.39 545.65 0.00 Z" />
<path fill="#c1a166" stroke="#c1a166" stroke-width="0.09375" opacity="1.00" d=" M 347.56 80.25 C 358.53 77.88 369.40 74.88 380.58 73.63 C 381.71 74.49 383.02 75.03 384.39 75.38 C 383.32 77.54 382.38 79.77 381.40 81.97 C 381.87 82.17 382.80 82.57 383.26 82.77 C 339.97 92.33 298.15 108.54 259.82 130.82 C 202.60 163.95 153.22 210.41 116.18 265.15 C 89.27 305.88 68.97 350.99 56.33 398.14 C 54.32 395.39 50.83 395.57 47.79 395.59 C 45.73 395.80 44.16 394.28 42.54 393.26 C 41.85 394.64 41.07 395.98 40.19 397.25 C 39.69 396.93 38.70 396.29 38.20 395.98 C 38.80 395.25 39.39 394.54 39.98 393.82 C 39.35 392.81 38.76 391.78 38.19 390.73 C 37.29 391.72 36.39 392.72 35.50 393.74 C 33.81 391.97 31.71 390.80 29.34 392.10 C 29.79 393.00 30.24 393.92 30.69 394.83 C 28.91 396.61 29.20 398.98 30.45 400.95 C 29.06 403.24 28.18 405.75 28.39 408.45 C 27.32 410.82 24.42 410.66 22.25 411.07 C 22.68 411.57 23.11 412.08 23.53 412.59 C 22.38 413.26 21.24 413.93 20.09 414.61 C 20.41 412.53 21.45 410.13 19.64 408.41 C 35.49 350.97 62.41 296.74 97.90 248.94 C 121.05 218.75 147.62 191.19 176.95 166.96 C 182.44 162.79 187.90 158.59 193.34 154.35 C 239.37 120.11 291.86 94.29 347.56 80.25 Z" />
<path fill="#0c131b" stroke="#0c131b" stroke-width="0.09375" opacity="1.00" d=" M 556.22 168.23 C 571.51 157.27 590.44 152.49 609.01 151.51 C 602.55 157.29 594.42 161.06 587.79 166.72 C 572.77 177.19 559.90 191.03 551.70 207.48 C 548.02 215.52 544.00 223.91 544.34 232.98 C 544.18 236.28 545.14 239.46 545.58 242.70 C 545.97 242.66 546.77 242.58 547.16 242.54 C 546.12 224.78 554.29 207.94 565.01 194.27 C 568.49 190.30 572.04 186.36 576.15 183.02 C 579.64 180.40 584.10 179.87 588.15 178.54 C 593.85 176.47 600.02 177.32 605.95 177.25 C 622.97 178.70 639.18 186.79 651.19 198.85 C 656.11 203.85 660.19 209.76 662.78 216.29 C 657.22 219.46 652.03 223.19 646.58 226.53 C 640.22 229.76 633.15 231.17 626.55 233.81 C 612.52 239.20 598.71 246.25 588.10 257.11 C 582.32 262.44 577.26 268.81 574.36 276.17 C 573.96 277.44 572.63 278.01 571.76 278.89 C 568.22 277.40 564.79 275.05 560.79 275.33 C 560.39 274.74 559.58 273.56 559.18 272.97 C 560.68 269.53 561.87 265.95 563.57 262.60 C 565.31 259.67 567.55 257.06 569.21 254.07 C 571.83 249.36 575.91 245.76 579.89 242.22 C 572.51 242.94 565.11 244.26 558.35 247.45 C 551.86 250.23 545.15 253.05 540.40 258.49 C 539.69 255.71 539.66 252.83 539.41 249.99 C 538.38 243.05 536.31 236.15 536.63 229.07 C 538.91 212.50 547.30 197.44 557.39 184.36 C 559.74 181.11 562.46 178.16 565.39 175.43 C 570.66 170.38 576.55 166.03 582.03 161.20 C 573.26 163.24 564.82 166.75 557.55 172.10 C 555.93 173.25 554.32 174.41 552.70 175.55 C 544.33 180.84 539.85 189.97 533.03 196.85 C 536.34 190.79 539.94 184.75 544.94 179.92 C 548.85 176.16 551.91 171.58 556.22 168.23 M 572.86 234.81 C 563.94 236.80 554.82 240.23 548.09 246.54 C 549.92 246.76 551.54 245.86 553.11 245.06 C 563.58 239.84 575.14 237.20 586.77 236.38 C 586.69 236.88 586.55 237.89 586.48 238.39 C 583.92 240.87 581.74 243.71 579.28 246.29 C 576.88 248.89 576.20 252.69 573.33 254.91 C 580.00 251.41 582.81 243.98 587.33 238.35 C 587.38 237.94 587.46 237.12 587.51 236.70 C 590.14 236.20 591.87 233.98 593.79 232.31 C 586.74 232.24 579.72 233.22 572.86 234.81 Z" />
<path fill="#a78a55" stroke="#a78a55" stroke-width="0.09375" opacity="1.00" d=" M 557.55 172.10 C 564.82 166.75 573.26 163.24 582.03 161.20 C 576.55 166.03 570.66 170.38 565.39 175.43 C 563.08 173.69 560.48 172.32 557.55 172.10 Z" />
<path fill="#a78a56" stroke="#a78a56" stroke-width="0.09375" opacity="1.00" d=" M 549.06 173.10 C 551.34 171.34 553.53 169.35 556.22 168.23 C 551.91 171.58 548.85 176.16 544.94 179.92 C 539.94 184.75 536.34 190.79 533.03 196.85 C 539.85 189.97 544.33 180.84 552.70 175.55 C 554.25 178.53 557.12 180.79 557.39 184.36 C 547.30 197.44 538.91 212.50 536.63 229.07 C 536.31 236.15 538.38 243.05 539.41 249.99 C 539.66 252.83 539.69 255.71 540.40 258.49 C 541.13 259.88 542.35 260.88 543.57 261.83 C 542.64 263.75 541.70 265.67 540.70 267.55 L 540.52 267.88 C 537.56 267.37 533.76 269.19 531.69 266.26 C 531.49 263.50 532.34 260.69 531.50 257.95 C 531.09 259.93 531.38 262.20 530.14 263.91 C 529.47 259.48 529.88 254.94 529.11 250.53 C 527.04 243.14 526.20 235.49 524.62 228.03 C 520.56 230.09 517.97 234.66 513.29 235.72 C 515.77 227.24 519.20 219.06 522.63 210.92 C 528.64 196.65 537.37 183.36 549.06 173.10 M 528.15 212.56 C 525.58 215.62 522.99 218.98 522.14 222.97 C 524.84 223.07 524.74 219.68 525.67 217.87 C 526.07 215.56 528.67 214.38 528.75 211.98 C 529.09 210.23 529.93 208.33 529.18 206.58 C 527.98 208.04 524.91 211.71 528.15 212.56 Z" />
<path fill="#977e51" stroke="#977e51" stroke-width="0.09375" opacity="1.00" d=" M 552.70 175.55 C 554.32 174.41 555.93 173.25 557.55 172.10 C 560.48 172.32 563.08 173.69 565.39 175.43 C 562.46 178.16 559.74 181.11 557.39 184.36 C 557.12 180.79 554.25 178.53 552.70 175.55 Z" />
<path fill="#c3ab78" stroke="#c3ab78" stroke-width="0.09375" opacity="1.00" d=" M 528.15 212.56 C 524.91 211.71 527.98 208.04 529.18 206.58 C 529.93 208.33 529.09 210.23 528.75 211.98 L 528.15 212.56 Z" />
<path fill="#101921" stroke="#101921" stroke-width="0.09375" opacity="1.00" d=" M 528.15 212.56 L 528.75 211.98 C 528.67 214.38 526.07 215.56 525.67 217.87 C 524.74 219.68 524.84 223.07 522.14 222.97 C 522.99 218.98 525.58 215.62 528.15 212.56 Z" />
<path fill="#0c131b" stroke="#0c131b" stroke-width="0.09375" opacity="1.00" d=" M 654.00 223.76 C 656.97 221.85 660.15 220.31 663.02 218.25 C 664.73 218.57 664.86 220.68 665.54 221.95 C 670.17 233.71 671.26 246.60 670.05 259.11 C 667.72 276.26 659.14 293.78 643.49 302.39 C 634.00 308.44 622.52 310.57 611.39 309.78 C 612.20 311.66 613.16 313.48 614.16 315.27 C 615.65 317.71 617.20 320.11 618.68 322.56 C 618.52 322.84 618.20 323.39 618.04 323.67 C 613.72 329.16 608.81 334.20 604.63 339.79 C 602.70 339.87 600.78 339.85 598.86 339.84 C 598.50 336.07 595.46 333.54 593.09 330.91 C 588.53 326.35 584.08 321.68 579.41 317.25 C 572.57 310.76 564.90 305.23 557.26 299.74 C 550.14 294.59 542.64 289.86 534.48 286.56 C 531.59 285.49 528.12 284.54 525.41 286.55 C 525.05 286.50 524.33 286.42 523.96 286.38 C 526.81 284.68 529.69 283.03 532.44 281.19 C 532.47 280.68 532.52 279.65 532.54 279.13 C 534.16 274.69 538.66 272.21 540.52 267.88 L 540.70 267.55 C 543.91 270.08 547.46 266.97 549.79 264.77 C 551.80 262.54 554.71 261.61 557.66 261.50 C 557.45 267.02 552.06 269.31 548.53 272.55 C 545.49 275.67 539.17 274.46 538.43 279.81 C 541.30 279.66 544.17 279.27 547.06 279.44 C 550.64 279.82 553.42 282.41 556.69 283.69 C 567.13 289.05 576.43 296.34 585.51 303.71 C 587.75 305.76 590.01 307.80 592.36 309.74 C 592.66 310.06 592.97 310.38 593.29 310.72 C 597.87 315.76 603.11 320.16 607.43 325.45 C 608.68 327.03 610.04 328.59 612.00 329.29 C 616.06 325.31 611.92 319.95 609.27 316.46 C 608.33 315.13 607.45 313.77 606.52 312.45 C 598.27 299.25 586.26 288.91 573.56 280.16 C 574.15 279.29 574.67 278.37 574.57 277.26 C 578.01 274.12 579.99 269.69 583.30 266.38 C 589.36 258.79 597.14 252.89 605.04 247.35 C 612.85 241.93 621.32 237.55 630.04 233.78 C 637.86 230.04 646.54 228.29 654.00 223.76 Z" />
<path fill="#fdfbf5" stroke="#fdfbf5" stroke-width="0.09375" opacity="1.00" d=" M 572.86 234.81 C 579.72 233.22 586.74 232.24 593.79 232.31 C 591.87 233.98 590.14 236.20 587.51 236.70 C 587.46 237.12 587.38 237.94 587.33 238.35 C 582.81 243.98 580.00 251.41 573.33 254.91 C 576.20 252.69 576.88 248.89 579.28 246.29 C 581.74 243.71 583.92 240.87 586.48 238.39 C 586.55 237.89 586.69 236.88 586.77 236.38 C 575.14 237.20 563.58 239.84 553.11 245.06 C 551.54 245.86 549.92 246.76 548.09 246.54 C 554.82 240.23 563.94 236.80 572.86 234.81 Z" />
<path fill="#639f8d" stroke="#639f8d" stroke-width="0.09375" opacity="1.00" d=" M 516.63 238.70 C 518.38 237.17 520.25 235.78 522.21 234.50 C 523.01 238.47 523.90 242.52 523.87 246.58 C 523.37 248.26 522.81 249.93 522.30 251.62 C 519.38 252.43 516.54 251.18 514.05 249.74 C 514.06 249.19 514.06 248.08 514.07 247.53 C 511.96 248.61 510.62 250.61 508.88 252.14 C 510.79 247.40 515.49 244.22 516.52 239.12 L 516.63 238.70 Z" />
<path fill="#111b19" stroke="#111b19" stroke-width="0.09375" opacity="1.00" d=" M 508.93 244.92 C 511.22 242.70 513.66 240.60 516.52 239.12 C 515.49 244.22 510.79 247.40 508.88 252.14 C 507.68 253.93 506.54 255.78 505.70 257.78 C 504.37 261.14 504.39 264.85 504.61 268.40 C 504.72 269.02 504.93 270.27 505.04 270.89 C 505.22 272.90 505.22 274.92 505.23 276.94 C 504.61 276.97 503.36 277.03 502.73 277.06 C 501.92 272.93 501.55 268.74 501.30 264.55 L 501.05 264.20 C 500.68 263.70 499.95 262.69 499.58 262.19 C 500.28 259.47 500.30 256.34 502.40 254.23 C 502.97 252.86 503.56 251.50 504.29 250.21 C 505.41 248.12 507.51 246.79 508.93 244.92 Z" />
<path fill="#9e8352" stroke="#9e8352" stroke-width="0.09375" opacity="1.00" d=" M 558.35 247.45 C 565.11 244.26 572.51 242.94 579.89 242.22 C 575.91 245.76 571.83 249.36 569.21 254.07 C 567.55 257.06 565.31 259.67 563.57 262.60 C 561.87 265.95 560.68 269.53 559.18 272.97 C 559.58 273.56 560.39 274.74 560.79 275.33 C 563.56 279.23 568.36 280.85 572.23 283.43 C 570.36 285.15 568.45 286.83 566.52 288.48 C 563.30 286.80 560.37 284.22 556.69 283.69 C 553.42 282.41 550.64 279.82 547.06 279.44 C 544.17 279.27 541.30 279.66 538.43 279.81 C 539.17 274.46 545.49 275.67 548.53 272.55 C 552.06 269.31 557.45 267.02 557.66 261.50 C 554.71 261.61 551.80 262.54 549.79 264.77 C 547.46 266.97 543.91 270.08 540.70 267.55 C 541.70 265.67 542.64 263.75 543.57 261.83 C 542.35 260.88 541.13 259.88 540.40 258.49 C 545.15 253.05 551.86 250.23 558.35 247.45 Z" />
<path fill="#569486" stroke="#569486" stroke-width="0.09375" opacity="1.00" d=" M 522.30 251.62 C 522.81 249.93 523.37 248.26 523.87 246.58 C 524.84 249.81 525.34 253.18 525.52 256.55 C 524.80 257.52 524.09 258.50 523.38 259.48 C 522.29 259.57 521.21 259.64 520.13 259.71 C 516.16 259.95 514.44 255.71 511.82 253.51 C 512.61 252.29 513.36 251.03 514.05 249.74 C 516.54 251.18 519.38 252.43 522.30 251.62 Z" />
<path fill="#a8d4bd" stroke="#a8d4bd" stroke-width="0.09375" opacity="1.00" d=" M 508.88 252.14 C 510.62 250.61 511.96 248.61 514.07 247.53 C 514.06 248.08 514.06 249.19 514.05 249.74 C 513.36 251.03 512.61 252.29 511.82 253.51 C 510.09 255.97 508.06 258.21 505.90 260.31 C 505.85 259.67 505.75 258.41 505.70 257.78 C 506.54 255.78 507.68 253.93 508.88 252.14 Z" />
<path fill="#56a08e" stroke="#56a08e" stroke-width="0.09375" opacity="1.00" d=" M 505.90 260.31 C 508.06 258.21 510.09 255.97 511.82 253.51 C 514.44 255.71 516.16 259.95 520.13 259.71 C 517.61 262.03 515.05 264.40 513.33 267.40 C 511.30 265.85 509.32 264.16 506.88 263.32 C 506.33 265.10 505.64 266.84 504.61 268.40 C 504.39 264.85 504.37 261.14 505.70 257.78 C 505.75 258.41 505.85 259.67 505.90 260.31 Z" />
<path fill="#23504b" stroke="#23504b" stroke-width="0.09375" opacity="1.00" d=" M 523.38 259.48 C 524.09 258.50 524.80 257.52 525.52 256.55 C 525.12 259.26 526.75 262.43 524.82 264.76 C 521.15 269.67 517.07 274.44 511.90 277.83 C 511.70 276.98 511.50 276.14 511.30 275.31 C 510.42 274.98 509.54 274.65 508.67 274.33 C 510.56 272.26 512.07 269.89 513.33 267.40 C 515.05 264.40 517.61 262.03 520.13 259.71 C 521.21 259.64 522.29 259.57 523.38 259.48 Z" />
<path fill="#987e4e" stroke="#987e4e" stroke-width="0.09375" opacity="1.00" d=" M 531.50 257.95 C 532.34 260.69 531.49 263.50 531.69 266.26 C 533.76 269.19 537.56 267.37 540.52 267.88 C 538.66 272.21 534.16 274.69 532.54 279.13 C 532.20 278.87 531.52 278.35 531.18 278.09 C 531.00 278.77 530.65 280.15 530.47 280.83 C 530.14 276.65 528.53 272.77 526.79 269.00 C 527.72 267.19 528.82 265.47 530.14 263.91 C 531.38 262.20 531.09 259.93 531.50 257.95 Z" />
<path fill="#488f7e" stroke="#488f7e" stroke-width="0.09375" opacity="1.00" d=" M 506.88 263.32 C 509.32 264.16 511.30 265.85 513.33 267.40 C 512.07 269.89 510.56 272.26 508.67 274.33 C 508.09 274.12 506.93 273.69 506.35 273.48 C 505.89 272.62 505.46 271.76 505.04 270.89 C 504.93 270.27 504.72 269.02 504.61 268.40 C 505.64 266.84 506.33 265.10 506.88 263.32 Z" />
<path fill="#a38750" stroke="#a38750" stroke-width="0.09375" opacity="1.00" d=" M 501.05 264.20 L 501.30 264.55 C 501.55 268.74 501.92 272.93 502.73 277.06 C 501.52 276.70 499.48 276.79 499.44 275.03 C 499.10 271.49 499.35 267.93 499.26 264.39 C 499.71 264.34 500.60 264.25 501.05 264.20 Z" />
<path fill="#a88c54" stroke="#a88c54" stroke-width="0.09375" opacity="1.00" d=" M 518.25 278.23 C 521.56 275.60 524.27 272.37 526.79 269.00 C 528.53 272.77 530.14 276.65 530.47 280.83 C 530.65 280.15 531.00 278.77 531.18 278.09 C 531.52 278.35 532.20 278.87 532.54 279.13 C 532.52 279.65 532.47 280.68 532.44 281.19 C 529.69 283.03 526.81 284.68 523.96 286.38 C 521.14 284.95 518.19 283.80 515.27 282.61 C 515.01 280.82 517.25 279.57 518.25 278.23 Z" />
<path fill="#0c131b" stroke="#0c131b" stroke-width="0.09375" opacity="1.00" d=" M 376.98 281.82 C 399.28 274.91 422.59 270.61 446.00 271.61 C 455.07 272.23 464.13 273.00 473.09 274.59 C 493.08 278.09 512.29 285.39 530.16 294.91 C 554.33 308.03 576.90 324.56 595.17 345.22 C 598.26 344.37 601.47 345.48 604.60 345.69 C 607.12 347.35 608.81 350.01 610.75 352.29 C 625.02 369.62 635.09 390.00 642.69 411.02 C 648.55 428.15 652.93 445.92 653.99 464.03 C 655.07 480.31 652.32 497.10 644.61 511.60 C 638.83 521.43 630.35 530.10 619.59 534.31 C 610.28 537.98 600.02 539.22 590.11 537.73 C 585.35 537.37 580.77 535.85 576.02 535.48 C 578.74 536.11 581.31 537.24 584.03 537.91 C 595.86 541.64 608.70 543.10 620.92 540.37 C 632.85 537.45 644.32 530.55 650.44 519.60 C 655.75 512.06 658.60 503.08 660.10 494.06 C 665.09 520.09 675.54 544.97 689.89 567.21 C 706.34 593.02 727.96 616.37 755.23 630.86 C 769.76 639.04 786.09 644.50 802.84 645.09 C 815.47 645.32 827.81 642.17 840.12 639.69 C 854.56 636.41 869.24 634.18 884.03 633.27 C 910.02 632.37 936.91 637.68 958.86 652.14 C 970.35 659.96 980.24 670.14 987.91 681.72 C 983.94 677.14 979.78 672.66 974.57 669.48 C 953.18 654.20 926.82 647.95 901.01 645.67 C 885.00 644.74 868.93 644.64 852.96 646.27 C 836.04 647.28 819.07 650.36 802.09 648.57 C 779.56 646.56 757.60 639.66 737.41 629.56 C 722.74 622.67 709.33 613.42 696.65 603.41 C 686.65 594.85 676.84 585.86 669.12 575.12 C 671.02 579.76 674.43 583.54 677.00 587.81 C 690.27 608.38 707.70 626.06 727.46 640.42 C 737.41 646.94 747.34 653.52 758.02 658.80 C 797.37 678.69 840.93 688.00 884.08 695.41 C 909.44 700.55 934.89 707.90 956.79 722.11 C 972.51 731.82 985.49 745.94 993.70 762.50 C 997.67 771.30 1001.06 780.75 1000.81 790.51 C 999.50 794.46 1000.10 798.66 999.86 802.75 C 999.27 802.24 998.68 801.74 998.11 801.25 C 996.77 801.97 995.46 802.73 994.18 803.54 C 994.01 802.44 993.86 801.35 993.72 800.27 C 993.07 800.91 992.45 801.57 991.83 802.24 C 988.73 782.33 977.92 764.26 963.78 750.17 C 950.66 736.76 934.28 726.96 917.15 719.57 C 896.30 711.04 874.15 706.23 851.87 703.34 C 829.56 699.48 806.71 697.33 785.22 689.86 C 783.83 689.69 782.46 689.55 781.09 689.43 C 782.46 689.89 783.87 690.28 785.32 690.50 C 785.91 691.77 787.53 691.64 788.62 692.27 C 832.39 710.69 874.69 735.62 905.83 772.10 C 918.49 787.92 929.76 805.22 936.35 824.50 C 939.02 831.57 941.44 838.77 942.83 846.22 C 947.80 870.88 947.48 896.69 940.80 921.01 C 929.74 960.13 906.94 995.68 876.67 1022.71 C 861.13 1036.61 843.95 1048.92 824.94 1057.59 C 835.87 1050.66 846.72 1043.14 856.11 1034.06 C 870.53 1020.43 882.72 1004.46 892.16 987.01 C 909.12 957.06 917.65 922.41 916.71 888.02 C 916.78 870.80 914.12 853.70 910.50 836.91 C 910.35 848.32 909.86 859.84 906.98 870.95 C 902.47 888.78 895.30 905.97 885.62 921.62 C 876.81 936.62 865.71 950.13 854.04 962.97 C 840.89 976.91 826.63 989.78 811.22 1001.19 C 794.11 1013.67 776.29 1025.17 758.12 1036.04 C 742.28 1045.98 726.04 1055.50 711.83 1067.75 C 697.76 1079.33 685.67 1093.71 678.36 1110.51 C 676.03 1115.86 674.95 1121.62 673.47 1127.23 C 673.51 1114.79 677.07 1102.53 682.20 1091.27 C 689.07 1075.55 699.94 1061.97 712.04 1049.96 C 726.19 1036.38 741.60 1024.21 755.95 1010.85 C 770.01 997.56 783.76 983.75 794.84 967.83 C 810.12 946.83 821.37 922.67 826.21 897.09 C 827.38 886.81 828.21 876.44 827.04 866.12 C 824.91 842.99 815.10 821.10 801.60 802.40 C 796.23 794.55 789.95 787.39 783.23 780.68 C 771.68 768.85 759.08 757.88 745.13 748.99 C 761.44 767.50 773.41 789.61 781.56 812.83 C 786.09 826.63 789.39 840.91 790.35 855.42 C 788.66 857.96 789.44 861.14 789.23 864.02 C 789.45 867.87 788.21 872.06 790.24 875.61 C 789.87 894.17 784.73 912.65 776.11 929.10 C 775.54 930.02 774.93 930.93 774.29 931.82 C 774.61 930.95 774.99 930.11 775.44 929.32 C 775.73 927.78 776.11 926.23 777.33 925.16 C 778.03 920.83 780.07 916.83 780.81 912.49 C 782.40 903.16 783.82 893.47 781.70 884.09 C 779.39 871.95 772.52 861.37 765.14 851.72 C 749.99 833.06 729.39 819.92 708.21 809.12 C 691.86 800.88 675.31 793.00 659.54 783.66 C 634.17 768.23 610.10 749.88 591.51 726.51 C 580.23 712.92 571.28 697.60 563.30 681.92 C 563.80 686.56 566.82 690.55 567.40 695.09 C 565.54 695.39 563.84 696.21 562.23 697.14 C 538.13 709.97 516.82 727.39 497.28 746.31 C 490.53 753.55 483.37 760.43 477.36 768.34 C 465.99 781.68 456.43 796.41 447.27 811.32 C 443.98 817.91 439.54 823.86 436.40 830.54 C 432.47 837.94 428.79 845.48 424.74 852.83 C 420.18 860.94 416.96 869.69 413.01 878.10 C 407.07 891.44 401.66 905.03 397.31 918.98 C 394.49 927.26 391.72 935.59 390.27 944.24 L 389.45 944.85 C 389.38 946.07 389.32 947.30 389.28 948.54 C 389.14 948.54 388.85 948.53 388.71 948.52 C 388.82 947.05 388.44 945.45 389.29 944.16 C 388.95 937.45 391.38 930.84 390.35 924.16 C 390.77 924.68 391.20 925.20 391.65 925.72 C 390.91 921.83 391.59 917.81 392.28 913.95 C 397.02 884.15 404.24 854.40 417.38 827.09 C 422.42 817.38 427.72 807.73 434.60 799.17 C 434.17 804.52 436.09 809.75 435.26 815.12 C 434.94 815.92 434.61 816.73 434.28 817.55 C 434.55 817.62 435.10 817.77 435.37 817.85 C 437.47 813.09 438.53 807.94 439.45 802.86 C 436.48 794.53 431.96 786.79 428.52 778.62 C 423.65 769.76 419.74 760.33 413.99 751.98 C 411.77 748.61 407.96 747.20 404.09 746.87 C 395.68 750.10 388.16 755.14 380.07 759.04 C 371.69 763.27 363.36 768.21 353.93 769.61 C 343.80 770.62 332.98 764.02 330.55 753.88 C 328.70 746.30 327.48 738.58 325.55 731.03 C 324.82 728.51 323.85 725.97 322.09 723.99 C 318.85 720.14 313.93 718.10 310.96 714.00 C 309.08 711.39 309.71 708.02 309.54 705.02 C 309.77 703.34 309.11 700.86 311.04 700.02 C 311.62 700.14 312.78 700.39 313.36 700.51 C 313.55 704.03 313.68 707.70 315.07 711.00 C 318.15 715.56 324.39 716.74 327.33 721.45 C 331.67 730.65 332.71 740.94 335.46 750.64 C 337.03 756.93 342.63 761.73 348.93 762.91 C 354.93 764.53 360.75 761.31 366.11 759.01 C 387.22 748.50 406.12 734.22 426.40 722.28 C 426.60 722.05 427.01 721.59 427.21 721.36 C 427.51 727.45 428.26 733.49 428.75 739.56 C 430.24 748.10 430.71 756.91 433.87 765.08 C 435.86 771.73 439.58 777.62 442.41 783.91 C 445.15 769.14 445.78 754.02 444.82 739.05 C 444.92 728.61 443.63 718.26 442.55 707.90 C 439.43 677.47 433.00 647.40 424.25 618.09 C 423.08 614.54 422.21 610.90 421.40 607.26 C 421.19 607.26 420.76 607.26 420.55 607.26 C 421.39 617.11 418.86 626.71 417.47 636.36 L 416.88 636.78 C 415.89 637.43 414.77 638.07 414.56 639.35 C 413.34 642.88 412.46 646.51 411.33 650.07 C 410.57 644.90 411.77 639.44 409.78 634.51 C 409.84 617.19 407.59 599.92 404.08 582.95 C 403.89 582.64 403.52 582.01 403.33 581.70 C 389.17 573.80 375.87 564.15 364.84 552.21 C 350.10 537.32 338.91 519.38 329.07 501.00 C 320.48 485.62 313.23 469.42 303.01 455.01 C 295.08 443.22 284.96 432.44 271.95 426.29 C 264.96 436.84 260.82 448.99 257.30 461.07 C 255.12 469.47 253.09 477.95 252.35 486.61 C 251.04 488.35 249.98 485.64 248.85 485.14 C 247.77 501.03 250.03 516.82 251.29 532.60 C 249.24 535.68 250.22 539.70 248.59 542.99 C 248.35 541.38 248.13 539.77 247.85 538.18 C 247.44 537.88 246.62 537.27 246.21 536.96 C 232.33 526.90 224.49 509.86 223.35 493.00 C 220.54 503.74 220.06 514.91 220.45 525.96 C 222.51 550.47 235.85 574.85 257.94 586.69 C 255.30 585.85 252.67 585.00 249.93 584.54 C 233.18 581.14 217.73 572.18 206.15 559.65 C 193.16 546.22 185.73 527.65 185.19 509.04 C 180.89 530.23 184.04 553.63 196.00 572.00 C 202.54 581.51 210.64 590.22 220.92 595.73 C 213.10 592.63 205.86 587.99 199.57 582.43 C 182.02 565.71 174.03 540.85 174.45 517.02 C 175.36 495.55 179.85 473.87 189.72 454.64 C 191.92 450.98 193.96 445.88 198.96 445.74 C 205.27 446.53 211.06 449.44 216.45 452.68 C 225.79 458.55 234.15 466.01 240.78 474.84 C 236.71 465.49 233.18 455.76 231.90 445.59 C 233.73 441.18 231.74 436.51 231.86 431.97 C 231.53 428.47 232.48 424.64 230.69 421.43 C 231.48 411.77 233.59 401.97 238.41 393.44 C 240.89 388.50 244.56 384.33 248.05 380.10 C 253.98 373.15 261.77 368.18 269.43 363.35 C 282.85 355.67 297.62 350.03 313.06 348.30 C 315.03 348.17 317.03 348.16 318.95 347.63 C 297.22 347.16 275.23 353.58 257.33 365.96 C 265.42 354.70 275.07 344.62 285.54 335.54 C 311.84 311.53 343.16 293.02 376.98 281.82 M 383.92 398.35 C 370.74 401.47 357.02 400.29 343.82 398.12 L 342.53 396.91 C 342.42 397.44 342.44 397.98 343.12 398.07 C 354.30 401.71 366.16 403.03 377.90 402.49 C 391.26 401.52 404.02 394.94 413.14 385.22 C 404.39 391.48 394.59 396.50 383.92 398.35 M 570.43 407.38 C 564.64 413.89 558.25 419.84 551.55 425.40 C 526.19 445.26 495.62 459.17 463.35 462.21 C 463.03 461.88 462.40 461.22 462.08 460.88 C 456.39 460.72 450.72 461.73 445.03 461.23 C 439.96 461.25 435.02 459.02 429.96 460.23 L 430.53 461.33 C 430.50 461.57 430.42 462.03 430.39 462.26 C 441.14 466.18 452.81 465.48 464.07 465.49 C 491.11 464.29 517.89 455.60 540.25 440.25 C 557.12 429.17 570.41 413.21 579.58 395.32 C 576.30 399.15 573.69 403.52 570.43 407.38 M 361.00 433.43 C 368.93 439.60 377.64 444.69 386.25 449.86 C 412.10 465.13 439.89 477.45 469.04 484.82 C 480.80 488.16 492.93 489.99 505.04 491.41 C 513.26 491.95 521.54 492.98 529.77 491.75 C 533.90 491.82 538.00 491.22 542.08 490.64 C 543.27 490.33 544.78 490.57 545.68 489.51 C 546.97 489.38 548.27 489.27 549.58 489.20 C 549.57 489.07 549.56 488.81 549.56 488.67 C 547.13 488.65 544.75 489.02 542.35 489.26 C 542.02 488.95 541.35 488.33 541.01 488.02 C 533.56 487.83 526.02 488.99 518.63 487.48 C 514.06 487.18 509.58 486.19 505.04 485.85 C 503.64 486.10 501.00 485.30 500.81 487.38 C 499.60 487.26 498.39 487.16 497.19 487.05 C 480.20 483.54 463.41 478.99 447.15 472.92 C 430.33 466.61 413.32 460.71 397.08 452.98 C 384.75 447.03 372.65 440.61 361.00 433.43 M 394.94 498.01 C 404.08 507.54 413.45 516.86 423.13 525.84 C 449.76 549.55 481.00 568.46 515.01 579.30 C 504.05 580.63 493.03 579.14 482.05 579.28 C 481.07 583.63 477.45 586.45 474.64 589.63 C 472.57 591.78 470.82 594.28 468.41 596.10 C 466.84 589.98 470.21 584.01 470.21 577.87 C 465.18 577.20 460.11 576.68 455.17 575.51 C 458.00 593.98 461.60 612.32 463.40 630.94 C 467.54 663.39 467.80 696.38 463.57 728.84 C 461.06 748.20 456.06 767.13 450.40 785.77 C 468.53 760.84 489.66 738.06 513.34 718.30 C 524.19 709.07 535.65 700.48 547.87 693.15 C 547.26 692.13 546.45 691.29 545.63 690.47 C 536.39 681.27 527.63 671.50 520.51 660.53 C 511.63 646.73 504.12 632.05 498.22 616.74 C 497.80 615.52 497.10 614.44 496.31 613.46 C 492.62 619.86 487.03 625.30 480.17 628.18 C 477.69 628.70 475.12 628.46 472.61 628.47 C 472.14 628.09 471.20 627.32 470.73 626.94 C 470.64 624.78 470.60 622.63 470.56 620.48 C 473.24 619.27 476.42 620.14 478.93 618.45 C 484.82 615.78 488.85 610.31 491.46 604.56 C 495.51 597.49 498.91 590.08 501.68 582.41 C 509.42 582.90 517.21 582.16 524.93 583.08 C 535.89 583.92 546.89 584.63 557.88 584.36 C 555.04 583.48 552.02 583.78 549.11 583.39 C 533.91 581.32 518.73 577.55 505.06 570.46 C 507.36 560.87 508.88 550.86 507.16 541.03 C 505.20 530.98 501.01 520.85 493.21 513.91 L 493.92 512.93 C 497.77 512.55 501.46 511.43 505.10 510.17 C 508.91 509.10 511.98 506.36 515.90 505.55 C 512.77 505.48 510.09 507.32 507.05 507.75 C 501.40 508.89 495.83 510.71 490.02 510.74 C 487.63 508.91 484.90 507.65 482.07 506.68 C 474.16 505.48 465.75 509.08 460.95 515.44 C 446.39 515.40 431.92 512.74 417.98 508.60 C 409.22 505.33 399.90 502.18 393.17 495.37 C 393.67 496.30 394.19 497.23 394.94 498.01 M 344.06 502.15 C 346.15 507.11 349.33 511.48 351.91 516.18 C 363.92 539.41 380.24 560.99 401.80 576.12 C 401.15 569.16 397.87 562.71 397.39 555.74 C 394.88 552.50 390.99 550.80 388.08 547.97 C 374.73 537.41 362.46 525.46 351.82 512.16 C 349.15 508.89 347.26 504.97 344.06 502.15 M 506.73 612.42 C 510.23 620.86 513.30 629.51 517.51 637.64 C 522.03 645.85 527.79 653.26 533.20 660.87 C 536.26 664.71 539.07 668.83 542.96 671.91 C 540.08 667.24 536.26 663.20 533.42 658.49 C 526.26 646.92 518.13 635.86 512.41 623.46 C 510.02 618.02 506.75 612.93 505.36 607.11 C 505.60 608.92 505.97 610.73 506.73 612.42 M 561.98 626.28 C 562.28 626.66 562.89 627.42 563.20 627.80 C 589.22 650.74 618.77 669.38 649.40 685.49 C 662.55 691.87 675.93 697.75 689.45 703.31 C 719.22 715.98 750.64 725.00 778.93 740.98 C 800.13 752.77 819.54 768.76 832.46 789.51 C 835.02 794.18 838.30 798.57 839.75 803.77 C 839.35 802.01 838.91 800.26 838.19 798.61 C 830.78 779.83 818.03 763.35 802.28 750.80 C 779.85 732.19 752.55 720.90 725.50 710.82 C 707.91 704.67 690.65 697.61 673.52 690.30 C 667.00 687.05 660.19 684.37 654.02 680.46 C 657.75 680.40 661.31 681.67 665.03 681.80 C 671.61 683.03 678.34 682.51 684.99 682.44 C 693.29 681.30 701.94 680.78 709.75 677.60 C 712.31 677.52 714.56 676.27 716.93 675.45 C 715.92 675.60 714.92 675.77 713.94 675.97 L 713.18 676.42 C 689.85 681.03 665.62 678.15 643.00 671.38 C 625.44 665.83 608.85 657.53 593.19 647.91 C 582.15 641.66 572.20 633.73 561.98 626.28 Z" />
<path fill="#30705e" stroke="#30705e" stroke-width="0.09375" opacity="1.00" d=" M 505.04 270.89 C 505.46 271.76 505.89 272.62 506.35 273.48 C 506.93 273.69 508.09 274.12 508.67 274.33 C 509.54 274.65 510.42 274.98 511.30 275.31 C 511.50 276.14 511.70 276.98 511.90 277.83 C 510.83 279.05 509.33 280.09 507.70 280.31 C 506.67 279.38 505.62 278.29 505.23 276.94 C 505.22 274.92 505.22 272.90 505.04 270.89 Z" />
<path fill="#fdfbf5" stroke="#fdfbf5" stroke-width="0.09375" opacity="1.00" d=" M 556.69 283.69 C 560.37 284.22 563.30 286.80 566.52 288.48 C 570.65 291.14 574.68 293.96 578.74 296.74 C 581.03 298.89 584.87 300.39 585.51 303.71 C 576.43 296.34 567.13 289.05 556.69 283.69 Z" />
<path fill="#91794f" stroke="#91794f" stroke-width="0.09375" opacity="1.00" d=" M 566.52 288.48 C 568.45 286.83 570.36 285.15 572.23 283.43 C 576.46 286.37 580.64 289.41 584.65 292.66 C 583.25 292.66 581.73 292.11 580.41 292.66 C 579.48 293.82 579.24 295.37 578.74 296.74 C 574.68 293.96 570.65 291.14 566.52 288.48 Z" />
<path fill="#a78b57" stroke="#a78b57" stroke-width="0.09375" opacity="1.00" d=" M 525.41 286.55 C 528.12 284.54 531.59 285.49 534.48 286.56 C 542.64 289.86 550.14 294.59 557.26 299.74 C 564.90 305.23 572.57 310.76 579.41 317.25 C 577.86 318.12 576.31 318.98 574.75 319.83 L 574.39 319.64 C 560.33 307.56 544.82 297.11 528.26 288.78 C 527.16 288.22 526.22 287.47 525.41 286.55 Z" />
<path fill="#a38750" stroke="#a38750" stroke-width="0.09375" opacity="1.00" d=" M 580.41 292.66 C 581.73 292.11 583.25 292.66 584.65 292.66 C 586.87 294.34 588.85 296.32 590.93 298.18 C 590.42 300.37 589.87 302.54 589.35 304.72 C 590.59 306.22 592.40 307.58 592.36 309.74 C 590.01 307.80 587.75 305.76 585.51 303.71 C 584.87 300.39 581.03 298.89 578.74 296.74 C 579.24 295.37 579.48 293.82 580.41 292.66 Z" />
<path fill="#8e7548" stroke="#8e7548" stroke-width="0.09375" opacity="1.00" d=" M 589.35 304.72 C 589.87 302.54 590.42 300.37 590.93 298.18 C 594.51 301.41 597.98 304.77 601.32 308.25 C 599.75 309.13 597.95 309.88 597.15 311.61 C 595.91 311.11 594.67 310.43 593.29 310.72 C 592.97 310.38 592.66 310.06 592.36 309.74 C 592.40 307.58 590.59 306.22 589.35 304.72 Z" />
<path fill="#9b7f4e" stroke="#9b7f4e" stroke-width="0.09375" opacity="1.00" d=" M 597.15 311.61 C 597.95 309.88 599.75 309.13 601.32 308.25 C 603.11 309.53 604.22 311.99 606.52 312.45 C 607.45 313.77 608.33 315.13 609.27 316.46 C 608.65 317.79 608.35 319.21 608.24 320.67 C 607.80 320.78 606.92 320.99 606.48 321.09 C 607.05 322.48 607.56 323.92 607.43 325.45 C 603.11 320.16 597.87 315.76 593.29 310.72 C 594.67 310.43 595.91 311.11 597.15 311.61 Z" />
<path fill="#a18653" stroke="#a18653" stroke-width="0.09375" opacity="1.00" d=" M 614.16 315.27 C 618.41 316.00 622.68 314.11 627.00 314.56 C 632.93 315.25 639.01 315.33 644.73 317.25 C 657.95 320.62 669.21 329.36 682.83 331.46 C 690.74 333.24 698.91 332.76 706.82 331.25 C 698.81 339.69 688.22 347.52 675.97 346.71 C 665.80 345.80 656.48 340.65 648.63 334.36 C 642.75 329.93 636.26 325.89 628.89 324.65 C 625.28 324.21 621.66 323.93 618.04 323.67 C 618.20 323.39 618.52 322.84 618.68 322.56 C 617.20 320.11 615.65 317.71 614.16 315.27 Z" />
<path fill="#917547" stroke="#917547" stroke-width="0.09375" opacity="1.00" d=" M 579.41 317.25 C 584.08 321.68 588.53 326.35 593.09 330.91 C 595.46 333.54 598.50 336.07 598.86 339.84 C 600.78 339.85 602.70 339.87 604.63 339.79 L 604.64 340.51 C 601.93 340.35 599.22 340.33 596.52 340.41 C 589.84 332.95 582.18 326.50 574.75 319.83 C 576.31 318.98 577.86 318.12 579.41 317.25 Z" />
<path fill="#856d44" stroke="#856d44" stroke-width="0.09375" opacity="1.00" d=" M 609.27 316.46 C 611.92 319.95 616.06 325.31 612.00 329.29 C 610.04 328.59 608.68 327.03 607.43 325.45 C 607.56 323.92 607.05 322.48 606.48 321.09 C 606.92 320.99 607.80 320.78 608.24 320.67 C 608.35 319.21 608.65 317.79 609.27 316.46 Z" />
<path fill="#9e8351" stroke="#9e8351" stroke-width="0.09375" opacity="1.00" d=" M 622.35 337.16 C 626.96 346.28 635.16 352.66 642.55 359.41 C 660.14 372.88 681.21 381.54 703.03 385.16 L 702.89 385.44 C 702.74 385.74 702.44 386.34 702.29 386.65 C 704.71 387.22 707.51 387.51 709.04 389.77 C 708.30 391.37 707.61 393.00 706.94 394.64 C 707.88 394.24 708.83 393.86 709.79 393.48 C 710.76 396.15 712.51 398.44 715.05 399.80 C 712.17 399.23 709.16 397.34 706.27 398.84 C 694.01 395.79 682.10 391.09 670.34 386.41 C 660.51 381.46 650.75 375.94 642.88 368.12 C 637.38 362.49 631.72 356.73 628.32 349.53 C 626.31 345.42 623.43 341.67 622.35 337.16 Z" />
<path fill="#0c131a" stroke="#0c131a" stroke-width="0.09375" opacity="1.00" d=" M 210.94 385.96 C 223.17 366.73 240.57 351.35 259.05 338.33 C 254.89 342.82 250.30 346.95 246.62 351.88 C 240.29 359.04 235.82 367.66 232.18 376.44 C 228.47 386.87 225.69 397.91 226.52 409.06 C 227.41 411.26 229.19 413.41 228.55 415.94 C 225.62 431.33 228.63 447.07 232.88 461.93 C 229.97 460.37 227.80 457.81 225.30 455.71 C 216.53 447.89 208.39 438.97 203.54 428.14 C 199.51 420.08 199.24 410.26 202.86 402.01 C 205.12 396.46 207.37 390.82 210.94 385.96 Z" />
<path fill="#f3f2f0" stroke="#f3f2f0" stroke-width="0.09375" opacity="1.00" d=" M 383.92 398.35 C 394.59 396.50 404.39 391.48 413.14 385.22 C 404.02 394.94 391.26 401.52 377.90 402.49 C 366.16 403.03 354.30 401.71 343.12 398.07 C 342.44 397.98 342.42 397.44 342.53 396.91 L 343.82 398.12 C 357.02 400.29 370.74 401.47 383.92 398.35 Z" />
<path fill="#927949" stroke="#927949" stroke-width="0.09375" opacity="1.00" d=" M 702.29 386.65 C 702.44 386.34 702.74 385.74 702.89 385.44 C 732.08 389.97 761.21 396.33 788.68 407.40 C 803.88 414.31 819.15 421.17 833.64 429.51 C 845.62 436.17 857.37 443.26 868.87 450.69 C 867.07 450.51 865.40 449.88 863.78 449.18 C 851.75 444.51 838.75 443.49 825.99 442.83 C 814.47 443.56 802.05 445.38 792.98 453.16 C 786.57 446.85 780.66 439.99 773.63 434.35 C 759.91 422.90 744.32 413.81 727.85 406.95 C 720.74 404.01 713.40 401.68 706.27 398.84 C 709.16 397.34 712.17 399.23 715.05 399.80 C 712.51 398.44 710.76 396.15 709.79 393.48 C 708.83 393.86 707.88 394.24 706.94 394.64 C 707.61 393.00 708.30 391.37 709.04 389.77 C 707.51 387.51 704.71 387.22 702.29 386.65 Z" />
<path fill="#b99a61" stroke="#b99a61" stroke-width="0.09375" opacity="1.00" d=" M 29.34 392.10 C 31.71 390.80 33.81 391.97 35.50 393.74 C 36.39 392.72 37.29 391.72 38.19 390.73 C 38.76 391.78 39.35 392.81 39.98 393.82 C 39.39 394.54 38.80 395.25 38.20 395.98 C 38.70 396.29 39.69 396.93 40.19 397.25 C 41.07 395.98 41.85 394.64 42.54 393.26 C 44.16 394.28 45.73 395.80 47.79 395.59 C 50.83 395.57 54.32 395.39 56.33 398.14 C 48.33 427.48 43.93 457.69 41.97 488.00 C 41.58 487.83 40.79 487.49 40.40 487.32 C 40.12 488.54 39.84 489.77 39.55 491.01 C 37.17 488.92 35.93 485.82 33.36 483.96 C 33.48 485.21 33.61 486.47 33.75 487.74 C 33.16 488.98 30.61 490.37 32.55 491.62 C 31.49 492.78 30.42 493.93 29.35 495.09 C 29.94 495.80 30.53 496.53 31.12 497.25 C 30.01 498.01 28.96 498.88 27.73 499.45 C 25.92 499.33 24.19 497.81 22.38 498.84 C 22.80 499.98 23.20 501.15 23.52 502.33 C 22.45 501.63 21.40 500.93 20.35 500.22 C 18.07 502.05 21.58 504.54 22.29 506.41 C 20.44 507.44 18.14 507.88 16.99 509.84 C 17.74 510.62 18.48 511.41 19.23 512.21 C 17.33 513.48 15.25 514.48 12.96 514.75 C 11.84 517.59 9.44 519.44 6.81 520.80 C 6.00 520.31 5.20 519.84 4.39 519.37 C 4.45 523.64 4.39 527.93 3.56 532.14 C 1.94 527.27 5.05 521.41 1.64 517.19 C 1.96 512.78 2.54 508.39 2.51 503.96 C 3.70 489.40 5.93 474.95 7.76 460.45 C 11.21 443.00 14.64 425.51 19.64 408.41 C 21.45 410.13 20.41 412.53 20.09 414.61 C 21.24 413.93 22.38 413.26 23.53 412.59 C 23.11 412.08 22.68 411.57 22.25 411.07 C 24.42 410.66 27.32 410.82 28.39 408.45 C 28.18 405.75 29.06 403.24 30.45 400.95 C 29.20 398.98 28.91 396.61 30.69 394.83 C 30.24 393.92 29.79 393.00 29.34 392.10 Z" />
<path fill="#f6f6f6" stroke="#f6f6f6" stroke-width="0.09375" opacity="1.00" d=" M 570.43 407.38 C 573.69 403.52 576.30 399.15 579.58 395.32 C 570.41 413.21 557.12 429.17 540.25 440.25 C 517.89 455.60 491.11 464.29 464.07 465.49 C 452.81 465.48 441.14 466.18 430.39 462.26 C 430.42 462.03 430.50 461.57 430.53 461.33 C 441.36 463.14 452.44 463.13 463.35 462.21 C 495.62 459.17 526.19 445.26 551.55 425.40 C 558.25 419.84 564.64 413.89 570.43 407.38 Z" />
<path fill="#0e161e" stroke="#0e161e" stroke-width="0.09375" opacity="1.00" d=" M 652.87 405.34 C 651.81 403.22 650.54 401.23 649.19 399.30 C 651.04 401.02 652.50 403.09 653.94 405.16 C 659.56 413.05 666.62 419.86 674.68 425.24 C 689.14 435.75 706.51 441.64 724.06 444.36 C 739.10 445.43 754.51 445.09 769.01 440.55 C 772.85 443.81 776.29 447.52 779.78 451.14 C 776.27 452.17 773.01 453.88 769.59 455.14 C 768.20 452.88 765.82 454.24 763.94 454.91 C 757.74 457.89 750.69 457.64 744.00 458.35 C 738.60 459.01 732.89 456.73 727.78 459.19 C 722.05 458.74 716.42 456.73 710.95 454.88 C 696.72 450.15 684.10 441.44 673.09 431.41 C 665.50 423.43 658.42 414.88 652.87 405.34 Z" />
<path fill="#020205" stroke="#020205" stroke-width="0.09375" opacity="1.00" d=" M 230.69 421.43 C 232.48 424.64 231.53 428.47 231.86 431.97 C 231.74 436.51 233.73 441.18 231.90 445.59 C 230.44 437.62 229.94 429.51 230.69 421.43 Z" />
<path fill="#0c141b" stroke="#0c141b" stroke-width="0.09375" opacity="1.00" d=" M 270.83 429.68 C 272.38 429.02 273.80 430.19 275.09 430.90 C 283.24 436.16 289.56 443.71 295.37 451.37 C 296.12 452.56 297.55 453.52 297.48 455.08 C 287.57 457.28 279.23 463.63 271.54 469.98 C 272.67 463.94 276.02 458.40 279.00 453.03 C 271.43 460.33 264.98 468.90 259.64 477.91 C 258.78 462.86 263.03 448.13 267.81 434.04 C 268.64 432.49 269.26 430.66 270.83 429.68 Z" />
<path fill="#fbfbfa" stroke="#fbfbfa" stroke-width="0.09375" opacity="1.00" d=" M 361.00 433.43 C 372.65 440.61 384.75 447.03 397.08 452.98 C 413.32 460.71 430.33 466.61 447.15 472.92 C 463.41 478.99 480.20 483.54 497.19 487.05 C 502.58 489.10 508.43 488.52 513.97 489.85 C 521.03 490.02 528.16 489.45 535.18 490.55 C 533.38 490.99 531.59 491.43 529.77 491.75 C 521.54 492.98 513.26 491.95 505.04 491.41 C 492.93 489.99 480.80 488.16 469.04 484.82 C 439.89 477.45 412.10 465.13 386.25 449.86 C 377.64 444.69 368.93 439.60 361.00 433.43 Z" />
<path fill="#020307" stroke="#020307" stroke-width="0.09375" opacity="1.00" d=" M 763.94 454.91 C 765.82 454.24 768.20 452.88 769.59 455.14 C 767.42 455.83 765.23 456.46 763.08 457.19 C 751.61 460.20 739.49 461.54 727.78 459.19 C 732.89 456.73 738.60 459.01 744.00 458.35 C 750.69 457.64 757.74 457.89 763.94 454.91 Z" />
<path fill="#101921" stroke="#101921" stroke-width="0.09375" opacity="1.00" d=" M 793.77 465.84 C 793.03 460.41 799.50 455.20 804.49 458.31 C 809.37 460.44 810.03 467.42 806.54 471.07 C 806.49 471.54 806.40 472.46 806.35 472.93 C 806.32 473.46 806.24 474.51 806.21 475.04 C 805.56 471.63 801.85 472.94 799.40 472.54 C 796.66 471.34 794.16 468.95 793.77 465.84 Z" />
<path fill="#04050a" stroke="#04050a" stroke-width="0.09375" opacity="1.00" d=" M 429.96 460.23 C 435.02 459.02 439.96 461.25 445.03 461.23 C 450.72 461.73 456.39 460.72 462.08 460.88 C 462.40 461.22 463.03 461.88 463.35 462.21 C 452.44 463.13 441.36 463.14 430.53 461.33 L 429.96 460.23 Z" />
<path fill="#8c7241" stroke="#8c7241" stroke-width="0.09375" opacity="1.00" d=" M 806.35 472.93 C 808.51 474.13 808.13 477.44 810.49 478.61 C 814.52 481.12 819.45 484.54 818.89 489.97 C 819.08 492.93 816.56 494.64 814.12 495.53 C 812.12 494.01 809.49 493.03 808.40 490.61 C 806.53 487.40 807.73 483.62 807.79 480.15 C 807.89 478.29 806.43 476.82 806.21 475.04 C 806.24 474.51 806.32 473.46 806.35 472.93 Z" />
<path fill="#af915a" stroke="#af915a" stroke-width="0.09375" opacity="1.00" d=" M 33.36 483.96 C 35.93 485.82 37.17 488.92 39.55 491.01 C 39.84 489.77 40.12 488.54 40.40 487.32 C 40.79 487.49 41.58 487.83 41.97 488.00 C 41.16 496.97 41.69 506.02 40.81 514.99 C 41.34 523.32 41.46 531.67 41.58 540.03 C 43.11 570.22 47.25 600.31 54.34 629.72 C 58.38 644.48 62.23 659.31 67.34 673.75 C 65.61 675.75 63.29 676.94 60.70 677.39 C 60.45 678.13 60.21 678.89 59.96 679.65 C 59.38 679.25 58.79 678.85 58.21 678.46 C 57.16 679.69 56.05 680.90 55.23 682.31 C 55.47 683.37 55.90 684.39 56.29 685.41 C 55.71 686.71 55.13 688.01 54.53 689.32 C 52.31 688.82 49.36 690.44 50.79 692.96 C 51.28 692.55 52.26 691.73 52.75 691.33 C 52.70 692.37 53.24 693.56 52.56 694.51 C 51.40 695.03 50.18 695.45 48.98 695.90 C 48.46 694.33 47.98 692.76 47.53 691.19 C 46.70 692.14 45.85 693.08 44.98 694.02 C 43.67 693.00 42.45 691.83 40.93 691.15 C 39.35 690.73 38.15 692.02 36.92 692.76 C 37.34 692.99 38.17 693.44 38.59 693.67 C 39.05 693.33 39.96 692.63 40.42 692.29 C 40.89 692.94 41.36 693.59 41.83 694.26 C 40.26 695.73 38.65 697.16 37.01 698.56 C 38.73 700.00 41.13 699.65 43.18 700.17 C 42.33 701.18 41.10 701.60 39.85 701.89 C 39.51 702.35 38.83 703.27 38.48 703.73 C 35.79 702.54 34.03 699.98 31.29 698.88 C 31.36 699.80 31.44 700.71 31.52 701.64 C 29.68 701.94 27.81 701.89 25.95 701.83 C 22.14 689.45 18.08 677.10 15.25 664.45 C 7.28 633.58 3.73 601.76 1.49 570.03 C 1.38 564.99 1.60 559.94 0.94 554.94 C -0.03 542.35 1.66 529.78 1.64 517.19 C 5.05 521.41 1.94 527.27 3.56 532.14 C 4.39 527.93 4.45 523.64 4.39 519.37 C 5.20 519.84 6.00 520.31 6.81 520.80 C 9.44 519.44 11.84 517.59 12.96 514.75 C 15.25 514.48 17.33 513.48 19.23 512.21 C 18.48 511.41 17.74 510.62 16.99 509.84 C 18.14 507.88 20.44 507.44 22.29 506.41 C 21.58 504.54 18.07 502.05 20.35 500.22 C 21.40 500.93 22.45 501.63 23.52 502.33 C 23.20 501.15 22.80 499.98 22.38 498.84 C 24.19 497.81 25.92 499.33 27.73 499.45 C 28.96 498.88 30.01 498.01 31.12 497.25 C 30.53 496.53 29.94 495.80 29.35 495.09 C 30.42 493.93 31.49 492.78 32.55 491.62 C 30.61 490.37 33.16 488.98 33.75 487.74 C 33.61 486.47 33.48 485.21 33.36 483.96 Z" />
<path fill="#02040a" stroke="#02040a" stroke-width="0.09375" opacity="1.00" d=" M 500.81 487.38 C 501.00 485.30 503.64 486.10 505.04 485.85 C 509.58 486.19 514.06 487.18 518.63 487.48 C 526.02 488.99 533.56 487.83 541.01 488.02 C 541.35 488.33 542.02 488.95 542.35 489.26 C 528.48 490.31 514.56 489.28 500.81 487.38 Z" />
<path fill="#d5d4d4" stroke="#d5d4d4" stroke-width="0.09375" opacity="1.00" d=" M 497.19 487.05 C 498.39 487.16 499.60 487.26 500.81 487.38 C 514.56 489.28 528.48 490.31 542.35 489.26 C 544.75 489.02 547.13 488.65 549.56 488.67 C 549.56 488.81 549.57 489.07 549.58 489.20 C 548.27 489.27 546.97 489.38 545.68 489.51 C 544.78 490.57 543.27 490.33 542.08 490.64 C 538.00 491.22 533.90 491.82 529.77 491.75 C 531.59 491.43 533.38 490.99 535.18 490.55 C 528.16 489.45 521.03 490.02 513.97 489.85 C 508.43 488.52 502.58 489.10 497.19 487.05 Z" />
<path fill="#ffffff" stroke="#ffffff" stroke-width="0.09375" opacity="1.00" d=" M 394.94 498.01 C 394.19 497.23 393.67 496.30 393.17 495.37 C 399.90 502.18 409.22 505.33 417.98 508.60 C 431.92 512.74 446.39 515.40 460.95 515.44 C 465.75 509.08 474.16 505.48 482.07 506.68 C 484.90 507.65 487.63 508.91 490.02 510.74 C 495.83 510.71 501.40 508.89 507.05 507.75 C 510.09 507.32 512.77 505.48 515.90 505.55 C 511.98 506.36 508.91 509.10 505.10 510.17 C 501.46 511.43 497.77 512.55 493.92 512.93 L 493.21 513.91 C 501.01 520.85 505.20 530.98 507.16 541.03 C 508.88 550.86 507.36 560.87 505.06 570.46 C 518.73 577.55 533.91 581.32 549.11 583.39 C 552.02 583.78 555.04 583.48 557.88 584.36 C 546.89 584.63 535.89 583.92 524.93 583.08 C 517.21 582.16 509.42 582.90 501.68 582.41 C 498.91 590.08 495.51 597.49 491.46 604.56 C 488.85 610.31 484.82 615.78 478.93 618.45 C 476.42 620.14 473.24 619.27 470.56 620.48 C 470.60 622.63 470.64 624.78 470.73 626.94 C 471.20 627.32 472.14 628.09 472.61 628.47 C 475.12 628.46 477.69 628.70 480.17 628.18 C 487.03 625.30 492.62 619.86 496.31 613.46 C 497.10 614.44 497.80 615.52 498.22 616.74 C 504.12 632.05 511.63 646.73 520.51 660.53 C 527.63 671.50 536.39 681.27 545.63 690.47 C 546.45 691.29 547.26 692.13 547.87 693.15 C 535.65 700.48 524.19 709.07 513.34 718.30 C 489.66 738.06 468.53 760.84 450.40 785.77 C 456.06 767.13 461.06 748.20 463.57 728.84 C 467.80 696.38 467.54 663.39 463.40 630.94 C 461.60 612.32 458.00 593.98 455.17 575.51 C 460.11 576.68 465.18 577.20 470.21 577.87 C 470.21 584.01 466.84 589.98 468.41 596.10 C 470.82 594.28 472.57 591.78 474.64 589.63 C 477.45 586.45 481.07 583.63 482.05 579.28 C 493.03 579.14 504.05 580.63 515.01 579.30 C 481.00 568.46 449.76 549.55 423.13 525.84 C 413.45 516.86 404.08 507.54 394.94 498.01 M 415.07 512.23 C 415.40 513.91 417.02 514.72 418.14 515.83 C 428.16 524.45 438.18 533.30 449.75 539.80 C 450.29 532.50 452.89 525.50 456.90 519.41 C 453.25 519.24 449.64 518.48 445.97 518.51 C 435.33 518.48 425.29 514.63 415.07 512.23 M 470.34 525.37 C 464.74 530.65 462.44 538.14 460.52 545.32 C 462.28 547.34 464.64 548.70 466.90 550.10 C 467.10 551.20 467.32 552.30 467.54 553.42 C 468.25 553.86 468.97 554.31 469.69 554.77 C 469.81 553.70 469.92 552.65 470.04 551.60 C 470.15 551.08 470.36 550.05 470.47 549.54 C 473.11 549.37 475.77 549.52 478.42 549.64 C 481.14 551.59 482.81 554.51 484.73 557.19 C 485.18 558.36 486.00 559.36 486.64 560.45 C 488.11 554.11 484.71 548.00 480.31 543.70 C 477.76 541.42 474.35 540.71 471.38 539.20 C 471.42 533.44 476.66 529.57 480.95 526.52 C 484.50 526.03 486.81 528.72 489.27 530.74 C 490.83 532.94 491.93 535.41 492.69 537.99 C 491.43 531.73 488.24 525.47 483.02 521.64 C 478.49 520.30 473.42 521.78 470.34 525.37 Z" />
<path fill="#4d907f" stroke="#4d907f" stroke-width="0.09375" opacity="1.00" d=" M 811.65 503.34 C 813.46 501.19 815.50 499.22 817.93 497.77 C 820.42 499.20 823.53 498.12 826.02 499.62 C 833.18 502.95 835.30 514.75 827.96 518.92 C 824.59 517.68 820.90 517.77 817.58 516.43 C 816.93 514.42 815.88 512.36 816.54 510.21 C 817.92 508.98 819.54 507.79 820.09 505.93 C 818.48 504.54 816.66 503.46 814.89 502.32 C 814.45 503.55 814.00 504.79 813.57 506.03 C 812.92 505.13 812.28 504.24 811.65 503.34 M 821.99 504.14 C 822.99 505.78 824.66 506.73 826.31 507.63 C 827.53 504.78 824.19 503.81 821.99 504.14 Z" />
<path fill="#f8f8f8" stroke="#f8f8f8" stroke-width="0.09375" opacity="1.00" d=" M 344.06 502.15 C 347.26 504.97 349.15 508.89 351.82 512.16 C 362.46 525.46 374.73 537.41 388.08 547.97 C 390.99 550.80 394.88 552.50 397.39 555.74 C 397.87 562.71 401.15 569.16 401.80 576.12 C 380.24 560.99 363.92 539.41 351.91 516.18 C 349.33 511.48 346.15 507.11 344.06 502.15 Z" />
<path fill="#75a89a" stroke="#75a89a" stroke-width="0.09375" opacity="1.00" d=" M 814.89 502.32 C 816.66 503.46 818.48 504.54 820.09 505.93 C 819.54 507.79 817.92 508.98 816.54 510.21 C 815.57 508.79 814.57 507.41 813.57 506.03 C 814.00 504.79 814.45 503.55 814.89 502.32 Z" />
<path fill="#327064" stroke="#327064" stroke-width="0.09375" opacity="1.00" d=" M 811.65 503.34 C 812.28 504.24 812.92 505.13 813.57 506.03 C 814.57 507.41 815.57 508.79 816.54 510.21 C 815.88 512.36 816.93 514.42 817.58 516.43 C 815.80 515.12 814.76 513.18 813.80 511.26 C 813.29 512.21 812.79 513.18 812.34 514.17 C 812.05 512.85 811.76 511.52 811.47 510.21 C 811.10 511.21 810.72 512.21 810.39 513.23 C 808.69 509.93 810.20 506.39 811.65 503.34 Z" />
<path fill="#6d9e8d" stroke="#6d9e8d" stroke-width="0.09375" opacity="1.00" d=" M 821.99 504.14 C 824.19 503.81 827.53 504.78 826.31 507.63 C 824.66 506.73 822.99 505.78 821.99 504.14 Z" />
<path fill="#27574e" stroke="#27574e" stroke-width="0.09375" opacity="1.00" d=" M 810.39 513.23 C 810.72 512.21 811.10 511.21 811.47 510.21 C 811.76 511.52 812.05 512.85 812.34 514.17 C 812.79 513.18 813.29 512.21 813.80 511.26 C 814.76 513.18 815.80 515.12 817.58 516.43 C 820.90 517.77 824.59 517.68 827.96 518.92 C 822.86 524.91 811.80 520.44 810.39 513.23 Z" />
<path fill="#0e151c" stroke="#0e151c" stroke-width="0.09375" opacity="1.00" d=" M 415.07 512.23 C 425.29 514.63 435.33 518.48 445.97 518.51 C 449.64 518.48 453.25 519.24 456.90 519.41 C 452.89 525.50 450.29 532.50 449.75 539.80 C 438.18 533.30 428.16 524.45 418.14 515.83 C 417.02 514.72 415.40 513.91 415.07 512.23 Z" />
<path fill="#0c131a" stroke="#0c131a" stroke-width="0.09375" opacity="1.00" d=" M 470.34 525.37 C 473.42 521.78 478.49 520.30 483.02 521.64 C 488.24 525.47 491.43 531.73 492.69 537.99 C 491.93 535.41 490.83 532.94 489.27 530.74 C 486.81 528.72 484.50 526.03 480.95 526.52 C 476.66 529.57 471.42 533.44 471.38 539.20 C 474.35 540.71 477.76 541.42 480.31 543.70 C 484.71 548.00 488.11 554.11 486.64 560.45 C 486.00 559.36 485.18 558.36 484.73 557.19 C 482.81 554.51 481.14 551.59 478.42 549.64 C 475.77 549.52 473.11 549.37 470.47 549.54 C 470.36 550.05 470.15 551.08 470.04 551.60 C 468.98 551.11 467.93 550.61 466.90 550.10 C 464.64 548.70 462.28 547.34 460.52 545.32 C 462.44 538.14 464.74 530.65 470.34 525.37 Z" />
<path fill="#0b1215" stroke="#0b1215" stroke-width="0.09375" opacity="1.00" d=" M 824.18 524.37 C 828.24 523.99 833.54 528.37 830.37 532.45 L 829.46 532.86 C 828.61 533.24 827.78 533.63 826.95 534.03 C 827.13 534.56 827.48 535.61 827.66 536.14 L 826.66 535.59 C 824.30 534.88 822.55 533.27 821.44 531.11 C 821.26 528.51 822.49 526.24 824.18 524.37 Z" />
<path fill="#0c151e" stroke="#0c151e" stroke-width="0.09375" opacity="1.00" d=" M 321.84 530.81 C 327.87 529.01 333.67 526.17 339.97 525.43 C 338.94 525.86 337.90 526.27 336.88 526.70 C 332.75 529.80 327.93 531.80 323.74 534.80 C 318.28 538.68 312.79 542.53 307.69 546.89 C 306.16 548.08 304.63 549.28 303.14 550.52 C 298.11 554.70 293.02 558.84 288.47 563.56 C 285.22 567.01 281.18 569.56 276.98 571.67 C 272.29 571.13 267.98 568.80 264.41 565.78 C 265.68 565.09 267.43 564.48 266.36 562.70 C 269.25 561.38 270.90 558.39 273.55 556.68 C 288.35 545.92 304.56 536.93 321.84 530.81 Z" />
<path fill="#0c1218" stroke="#0c1218" stroke-width="0.09375" opacity="1.00" d=" M 248.59 542.99 C 250.22 539.70 249.24 535.68 251.29 532.60 C 252.31 539.69 252.67 546.85 254.09 553.88 C 254.52 557.72 255.34 561.86 258.34 564.58 C 263.64 570.67 270.19 575.82 273.94 583.10 C 276.58 587.91 277.79 593.58 276.92 599.03 C 274.36 616.77 269.56 634.12 264.14 651.18 C 263.48 653.90 261.71 656.70 262.39 659.54 C 265.27 663.78 270.70 664.95 275.43 665.88 C 281.08 667.16 287.28 666.85 292.47 669.70 C 297.97 674.38 297.63 682.50 297.38 689.08 C 300.18 692.07 304.07 693.52 307.49 695.64 C 308.70 696.17 309.00 697.47 308.86 698.69 C 304.53 699.24 300.63 697.13 297.01 695.05 C 295.26 693.81 293.01 692.53 292.75 690.17 C 292.43 686.10 293.14 681.81 291.47 677.96 C 290.72 676.24 290.06 673.79 287.91 673.42 C 279.04 670.84 269.12 671.19 261.25 665.74 C 258.82 663.94 255.36 661.60 256.54 658.08 C 262.71 639.04 268.53 619.74 271.48 599.90 C 271.42 594.03 271.41 587.38 267.27 582.72 C 261.44 575.88 253.86 570.51 249.21 562.69 C 247.19 558.75 248.17 554.19 247.26 550.01 C 246.51 545.70 246.33 541.32 246.21 536.96 C 246.62 537.27 247.44 537.88 247.85 538.18 C 248.13 539.77 248.35 541.38 248.59 542.99 Z" />
<path fill="#599c8a" stroke="#599c8a" stroke-width="0.09375" opacity="1.00" d=" M 826.95 534.03 C 827.78 533.63 828.61 533.24 829.46 532.86 C 836.14 544.91 843.44 556.67 851.87 567.59 C 849.59 568.30 847.28 569.00 845.27 570.32 C 843.35 571.36 841.60 573.18 839.24 572.94 C 836.90 565.55 834.83 558.07 832.30 550.75 C 830.02 546.11 829.18 541.02 827.66 536.14 C 827.48 535.61 827.13 534.56 826.95 534.03 Z" />
<path fill="#2f665b" stroke="#2f665b" stroke-width="0.09375" opacity="1.00" d=" M 826.66 535.59 L 827.66 536.14 C 829.18 541.02 830.02 546.11 832.30 550.75 C 829.50 556.50 832.61 563.11 829.92 568.89 C 829.29 568.23 828.67 567.57 828.06 566.92 C 828.20 564.07 828.50 561.03 826.84 558.52 C 826.27 550.95 826.45 543.21 826.66 535.59 Z" />
<path fill="#ececeb" stroke="#ececeb" stroke-width="0.09375" opacity="1.00" d=" M 303.14 550.52 C 304.63 549.28 306.16 548.08 307.69 546.89 C 311.05 548.17 309.42 551.53 308.63 554.00 C 306.88 553.72 305.16 553.29 303.50 552.73 C 303.38 551.98 303.26 551.25 303.14 550.52 Z" />
<path fill="#cecdcc" stroke="#cecdcc" stroke-width="0.09375" opacity="1.00" d=" M 466.90 550.10 C 467.93 550.61 468.98 551.11 470.04 551.60 C 469.92 552.65 469.81 553.70 469.69 554.77 C 468.97 554.31 468.25 553.86 467.54 553.42 C 467.32 552.30 467.10 551.20 466.90 550.10 Z" />
<path fill="#357064" stroke="#357064" stroke-width="0.09375" opacity="1.00" d=" M 832.30 550.75 C 834.83 558.07 836.90 565.55 839.24 572.94 C 835.39 573.28 831.69 574.47 828.08 575.80 C 827.89 572.84 827.86 569.87 828.06 566.92 C 828.67 567.57 829.29 568.23 829.92 568.89 C 832.61 563.11 829.50 556.50 832.30 550.75 Z" />
<path fill="#0c151d" stroke="#0c151d" stroke-width="0.09375" opacity="1.00" d=" M 332.91 563.99 C 336.03 561.92 338.95 559.56 341.96 557.33 C 333.40 569.18 325.96 582.17 314.79 591.83 C 311.30 595.08 306.93 597.05 303.10 599.82 C 303.44 596.80 304.12 593.39 302.04 590.81 C 297.24 593.49 292.51 596.31 287.53 598.63 C 287.49 598.42 287.40 598.00 287.36 597.79 C 291.05 595.89 292.91 591.62 294.45 587.94 C 295.99 583.86 292.53 580.62 291.10 577.14 C 289.93 573.89 286.70 571.78 286.03 568.35 C 287.53 568.47 289.52 567.58 290.65 568.95 C 294.06 572.80 296.39 577.45 298.92 581.90 C 311.28 578.10 321.89 570.50 332.91 563.99 Z" />
<path fill="#214c46" stroke="#214c46" stroke-width="0.09375" opacity="1.00" d=" M 826.84 558.52 C 828.50 561.03 828.20 564.07 828.06 566.92 C 827.86 569.87 827.89 572.84 828.08 575.80 C 831.69 574.47 835.39 573.28 839.24 572.94 C 840.90 577.00 840.98 581.47 842.45 585.59 C 843.48 588.90 844.91 592.07 846.35 595.22 C 846.39 595.94 846.47 597.37 846.51 598.09 C 842.43 594.97 839.54 590.63 835.92 587.05 C 832.55 583.71 829.52 580.07 826.34 576.56 C 826.54 570.55 826.34 564.52 826.84 558.52 Z" />
<path fill="#438273" stroke="#438273" stroke-width="0.09375" opacity="1.00" d=" M 845.27 570.32 C 847.28 569.00 849.59 568.30 851.87 567.59 L 852.40 568.73 C 850.70 575.76 849.15 582.83 848.01 589.99 C 847.57 591.75 847.73 593.84 846.35 595.22 C 844.91 592.07 843.48 588.90 842.45 585.59 C 840.98 581.47 840.90 577.00 839.24 572.94 C 841.60 573.18 843.35 571.36 845.27 570.32 Z" />
<path fill="#fbfbfa" stroke="#fbfbfa" stroke-width="0.09375" opacity="1.00" d=" M 506.73 612.42 C 505.97 610.73 505.60 608.92 505.36 607.11 C 506.75 612.93 510.02 618.02 512.41 623.46 C 518.13 635.86 526.26 646.92 533.42 658.49 C 536.26 663.20 540.08 667.24 542.96 671.91 C 539.07 668.83 536.26 664.71 533.20 660.87 C 527.79 653.26 522.03 645.85 517.51 637.64 C 513.30 629.51 510.23 620.86 506.73 612.42 Z" />
<path fill="#f7f8f8" stroke="#f7f8f8" stroke-width="0.09375" opacity="1.00" d=" M 561.98 626.28 C 572.20 633.73 582.15 641.66 593.19 647.91 C 608.85 657.53 625.44 665.83 643.00 671.38 C 665.62 678.15 689.85 681.03 713.18 676.42 L 713.94 675.97 C 714.92 675.77 715.92 675.60 716.93 675.45 C 714.56 676.27 712.31 677.52 709.75 677.60 C 701.94 680.78 693.29 681.30 684.99 682.44 C 678.34 682.51 671.61 683.03 665.03 681.80 C 661.31 681.67 657.75 680.40 654.02 680.46 C 660.19 684.37 667.00 687.05 673.52 690.30 C 690.65 697.61 707.91 704.67 725.50 710.82 C 752.55 720.90 779.85 732.19 802.28 750.80 C 818.03 763.35 830.78 779.83 838.19 798.61 C 838.91 800.26 839.35 802.01 839.75 803.77 C 838.30 798.57 835.02 794.18 832.46 789.51 C 819.54 768.76 800.13 752.77 778.93 740.98 C 750.64 725.00 719.22 715.98 689.45 703.31 C 675.93 697.75 662.55 691.87 649.40 685.49 C 618.77 669.38 589.22 650.74 563.20 627.80 C 562.89 627.42 562.28 626.66 561.98 626.28 Z" />
<path fill="#020307" stroke="#020307" stroke-width="0.09375" opacity="1.00" d=" M 409.78 634.51 C 411.77 639.44 410.57 644.90 411.33 650.07 C 412.46 646.51 413.34 642.88 414.56 639.35 C 414.77 638.07 415.89 637.43 416.88 636.78 C 415.21 647.18 411.40 657.24 406.14 666.37 C 405.35 667.75 405.58 669.83 404.03 670.76 L 403.54 670.43 L 403.16 669.72 C 403.87 668.80 404.59 667.90 405.22 666.94 C 406.68 661.02 408.46 655.09 408.59 648.95 C 408.66 647.31 408.68 645.64 409.27 644.10 C 409.60 640.91 409.27 637.68 409.78 634.51 Z" />
<path fill="#a38753" stroke="#a38753" stroke-width="0.09375" opacity="1.00" d=" M 60.70 677.39 C 63.29 676.94 65.61 675.75 67.34 673.75 C 82.08 717.03 103.12 758.06 129.13 795.64 C 128.73 796.15 127.91 797.18 127.51 797.69 C 125.00 796.80 122.79 795.32 121.05 793.32 C 120.08 794.49 119.12 795.67 118.17 796.87 C 118.26 794.72 119.16 791.44 116.34 790.62 C 114.79 789.73 113.78 791.66 112.64 792.41 C 112.43 792.27 112.00 791.99 111.79 791.85 C 110.59 792.02 109.40 792.21 108.22 792.43 C 110.07 794.39 111.61 796.62 112.90 799.00 C 113.69 798.48 114.47 797.97 115.25 797.48 C 117.56 799.67 120.20 801.52 122.26 803.98 C 121.02 804.87 119.78 805.78 118.56 806.71 C 117.30 805.35 116.04 803.99 114.73 802.69 C 113.81 804.81 116.56 806.82 114.54 808.76 C 112.41 807.28 110.14 806.01 107.73 805.05 C 107.53 805.71 107.33 806.39 107.13 807.07 C 106.27 806.27 105.39 805.48 104.52 804.72 C 104.40 807.74 105.78 810.83 108.38 812.48 C 105.85 814.32 109.95 815.58 111.47 815.94 C 111.91 814.52 112.36 813.13 112.84 811.74 C 113.16 812.35 113.48 812.97 113.79 813.61 C 114.61 813.85 115.42 814.10 116.23 814.36 C 116.81 816.50 117.86 818.46 119.12 820.29 C 117.10 821.78 114.77 822.75 112.68 824.14 C 111.12 823.61 109.47 823.42 107.83 823.44 C 108.61 825.16 109.68 826.72 110.94 828.14 C 109.96 828.61 108.97 829.09 108.00 829.59 C 107.01 828.80 106.04 828.03 105.06 827.26 C 104.84 828.37 104.62 829.51 104.39 830.65 C 103.16 830.52 101.92 830.48 100.68 830.58 C 102.05 831.80 103.52 832.93 104.75 834.31 C 104.53 837.31 101.90 839.53 99.46 841.00 C 82.17 818.44 67.29 794.15 53.97 769.08 C 43.13 747.32 33.76 724.85 25.95 701.83 C 27.81 701.89 29.68 701.94 31.52 701.64 C 31.44 700.71 31.36 699.80 31.29 698.88 C 34.03 699.98 35.79 702.54 38.48 703.73 C 38.83 703.27 39.51 702.35 39.85 701.89 C 41.10 701.60 42.33 701.18 43.18 700.17 C 41.13 699.65 38.73 700.00 37.01 698.56 C 38.65 697.16 40.26 695.73 41.83 694.26 C 41.36 693.59 40.89 692.94 40.42 692.29 C 39.96 692.63 39.05 693.33 38.59 693.67 C 38.17 693.44 37.34 692.99 36.92 692.76 C 38.15 692.02 39.35 690.73 40.93 691.15 C 42.45 691.83 43.67 693.00 44.98 694.02 C 45.85 693.08 46.70 692.14 47.53 691.19 C 47.98 692.76 48.46 694.33 48.98 695.90 C 50.18 695.45 51.40 695.03 52.56 694.51 C 53.24 693.56 52.70 692.37 52.75 691.33 C 52.26 691.73 51.28 692.55 50.79 692.96 C 49.36 690.44 52.31 688.82 54.53 689.32 C 55.13 688.01 55.71 686.71 56.29 685.41 C 55.90 684.39 55.47 683.37 55.23 682.31 C 56.05 680.90 57.16 679.69 58.21 678.46 C 58.79 678.85 59.38 679.25 59.96 679.65 C 60.21 678.89 60.45 678.13 60.70 677.39 Z" />
<path fill="#0c0d10" stroke="#0c0d10" stroke-width="0.09375" opacity="1.00" d=" M 313.11 695.07 C 315.12 693.78 317.68 693.57 320.02 693.49 C 325.56 693.40 331.11 693.39 336.65 693.48 C 336.65 693.70 336.64 694.14 336.63 694.35 C 331.81 695.55 326.88 696.22 321.96 696.82 C 319.89 697.59 317.71 697.98 315.58 698.52 C 314.30 697.69 312.75 696.89 313.11 695.07 Z" />
<path fill="#9f8455" stroke="#9f8455" stroke-width="0.09375" opacity="1.00" d=" M 548.08 718.16 C 554.90 712.66 562.48 708.25 569.99 703.78 C 571.28 705.66 572.57 707.55 573.80 709.49 C 565.99 713.67 559.08 719.27 551.95 724.47 C 551.26 721.98 552.91 719.72 553.02 717.27 C 551.42 717.80 549.78 718.26 548.08 718.16 Z" />
<path fill="#0c131b" stroke="#0c131b" stroke-width="0.09375" opacity="1.00" d=" M 551.95 724.47 C 559.08 719.27 565.99 713.67 573.80 709.49 C 586.38 730.69 601.49 750.63 620.32 766.68 C 630.50 776.06 642.42 783.24 653.52 791.43 C 645.94 792.79 638.50 794.82 631.06 796.79 C 625.75 798.43 620.56 800.42 615.31 802.25 C 589.30 811.63 564.77 824.90 541.83 840.27 C 495.91 870.91 456.99 911.17 425.04 956.00 C 402.39 987.02 383.35 1020.44 363.17 1053.07 C 357.15 1062.85 350.77 1072.40 344.16 1081.79 C 357.39 1065.29 369.45 1047.90 381.57 1030.58 C 397.85 1007.46 413.03 983.58 429.90 960.88 C 459.88 919.94 494.78 882.10 536.13 852.42 C 559.89 835.05 585.74 820.42 613.25 809.90 C 621.58 806.92 630.07 804.44 638.52 801.84 C 647.33 800.32 655.97 797.43 664.97 797.42 C 677.19 810.26 691.27 821.09 705.62 831.42 C 725.01 844.91 744.97 857.54 764.52 870.79 C 761.00 872.76 756.85 871.96 753.01 872.25 C 747.24 872.58 741.42 871.29 735.72 872.52 C 732.45 873.24 729.01 872.79 725.79 873.59 L 725.25 874.43 L 724.76 875.21 C 701.72 877.45 679.11 882.96 657.01 889.74 C 610.08 904.51 565.71 926.74 524.44 953.40 C 505.34 965.33 487.06 978.52 469.13 992.13 C 450.12 1007.15 430.76 1021.80 412.74 1038.03 C 411.92 1038.63 411.11 1039.25 410.33 1039.91 C 374.11 1071.38 338.37 1104.58 295.16 1126.36 C 289.94 1128.87 284.43 1130.84 279.56 1134.00 L 279.06 1134.00 C 282.73 1130.23 287.64 1128.08 291.50 1124.55 C 309.64 1110.29 324.43 1092.31 337.91 1073.72 C 352.43 1054.17 364.12 1032.74 375.16 1011.10 C 386.78 987.56 397.03 963.38 407.17 939.18 C 414.39 924.12 420.24 908.46 427.35 893.35 C 447.39 849.79 470.19 806.78 502.12 770.64 C 512.71 758.68 524.09 747.42 536.19 736.98 C 538.47 735.00 540.84 733.12 543.20 731.21 C 546.07 728.91 549.01 726.69 551.95 724.47 Z" />
<path fill="#ab8f5d" stroke="#ab8f5d" stroke-width="0.09375" opacity="1.00" d=" M 548.08 718.16 C 549.78 718.26 551.42 717.80 553.02 717.27 C 552.91 719.72 551.26 721.98 551.95 724.47 C 549.01 726.69 546.07 728.91 543.20 731.21 C 542.81 730.86 542.04 730.14 541.65 729.78 C 539.33 729.79 537.26 728.98 536.70 726.53 C 540.46 723.69 544.09 720.68 548.08 718.16 Z" />
<path fill="#9f8352" stroke="#9f8352" stroke-width="0.09375" opacity="1.00" d=" M 529.77 732.15 C 531.98 730.15 534.32 728.31 536.70 726.53 C 537.26 728.98 539.33 729.79 541.65 729.78 C 542.04 730.14 542.81 730.86 543.20 731.21 C 540.84 733.12 538.47 735.00 536.19 736.98 C 533.95 735.50 531.80 733.89 529.77 732.15 Z" />
<path fill="#aa8e58" stroke="#aa8e58" stroke-width="0.09375" opacity="1.00" d=" M 496.78 764.03 C 506.88 752.52 518.05 741.99 529.77 732.15 C 531.80 733.89 533.95 735.50 536.19 736.98 C 524.09 747.42 512.71 758.68 502.12 770.64 C 499.59 769.11 497.86 766.73 496.78 764.03 Z" />
<path fill="#b59760" stroke="#b59760" stroke-width="0.09375" opacity="1.00" d=" M 422.36 893.54 C 439.13 846.40 463.38 801.51 496.78 764.03 C 497.86 766.73 499.59 769.11 502.12 770.64 C 470.19 806.78 447.39 849.79 427.35 893.35 C 420.24 908.46 414.39 924.12 407.17 939.18 C 407.97 932.53 411.00 926.48 412.98 920.16 C 415.77 911.17 418.71 902.22 422.36 893.54 Z" />
<path fill="#997f4d" stroke="#997f4d" stroke-width="0.09375" opacity="1.00" d=" M 112.64 792.41 C 113.78 791.66 114.79 789.73 116.34 790.62 C 119.16 791.44 118.26 794.72 118.17 796.87 C 119.12 795.67 120.08 794.49 121.05 793.32 C 122.79 795.32 125.00 796.80 127.51 797.69 C 127.91 797.18 128.73 796.15 129.13 795.64 C 143.84 816.94 160.45 836.90 178.34 855.60 C 182.40 860.55 187.33 864.64 191.84 869.16 C 210.04 886.82 229.53 903.16 250.20 917.86 C 264.30 928.40 279.50 937.34 294.65 946.29 C 293.26 946.97 291.76 946.57 290.31 946.41 C 289.40 949.54 289.13 952.81 289.83 956.02 C 265.93 946.51 243.09 934.45 221.39 920.65 C 216.79 917.72 212.65 914.12 207.97 911.30 C 212.97 916.61 219.21 920.56 224.70 925.33 C 248.85 944.07 275.15 960.12 302.99 972.76 C 302.89 973.24 302.68 974.20 302.58 974.68 C 303.21 976.35 304.66 979.10 301.94 979.71 C 292.21 976.69 283.07 972.18 273.70 968.25 C 266.93 965.43 260.70 961.54 254.11 958.38 C 259.37 963.23 266.08 966.05 271.95 970.07 C 278.37 974.47 285.25 978.11 292.07 981.85 C 314.55 994.81 338.52 1004.97 362.95 1013.63 C 358.96 1012.55 354.92 1011.70 350.88 1010.86 C 324.31 1004.55 298.77 994.56 274.13 982.88 C 244.93 968.60 216.86 951.80 191.15 931.88 C 173.14 918.05 155.83 903.25 139.93 887.02 C 125.27 872.76 112.21 856.96 99.46 841.00 C 101.90 839.53 104.53 837.31 104.75 834.31 C 103.52 832.93 102.05 831.80 100.68 830.58 C 101.92 830.48 103.16 830.52 104.39 830.65 C 104.62 829.51 104.84 828.37 105.06 827.26 C 106.04 828.03 107.01 828.80 108.00 829.59 C 108.97 829.09 109.96 828.61 110.94 828.14 C 109.68 826.72 108.61 825.16 107.83 823.44 C 109.47 823.42 111.12 823.61 112.68 824.14 C 114.77 822.75 117.10 821.78 119.12 820.29 C 117.86 818.46 116.81 816.50 116.23 814.36 C 115.42 814.10 114.61 813.85 113.79 813.61 C 113.48 812.97 113.16 812.35 112.84 811.74 C 112.36 813.13 111.91 814.52 111.47 815.94 C 109.95 815.58 105.85 814.32 108.38 812.48 C 105.78 810.83 104.40 807.74 104.52 804.72 C 105.39 805.48 106.27 806.27 107.13 807.07 C 107.33 806.39 107.53 805.71 107.73 805.05 C 110.14 806.01 112.41 807.28 114.54 808.76 C 116.56 806.82 113.81 804.81 114.73 802.69 C 116.04 803.99 117.30 805.35 118.56 806.71 C 119.78 805.78 121.02 804.87 122.26 803.98 C 120.20 801.52 117.56 799.67 115.25 797.48 C 114.47 797.97 113.69 798.48 112.90 799.00 C 111.61 796.62 110.07 794.39 108.22 792.43 C 109.40 792.21 110.59 792.02 111.79 791.85 C 112.00 791.99 112.43 792.27 112.64 792.41 Z" />
<path fill="#0a0e12" stroke="#0a0e12" stroke-width="0.09375" opacity="1.00" d=" M 999.86 802.75 C 1000.10 798.66 999.50 794.46 1000.81 790.51 C 1001.15 799.68 1001.53 809.05 999.02 817.98 C 996.07 828.77 992.16 839.52 985.79 848.79 C 984.67 850.58 983.53 852.36 982.10 853.92 C 991.00 838.45 995.38 819.88 991.83 802.24 C 992.45 801.57 993.07 800.91 993.72 800.27 C 993.86 801.35 994.01 802.44 994.18 803.54 C 995.46 802.73 996.77 801.97 998.11 801.25 C 998.68 801.74 999.27 802.24 999.86 802.75 Z" />
<path fill="#967948" stroke="#967948" stroke-width="0.09375" opacity="1.00" d=" M 635.18 796.40 C 644.97 794.74 655.46 794.04 664.97 797.42 C 655.97 797.43 647.33 800.32 638.52 801.84 C 637.13 801.47 635.76 801.03 634.41 800.59 C 634.83 800.14 635.27 799.70 635.71 799.27 C 635.13 799.11 633.96 798.80 633.38 798.65 C 633.97 797.89 634.57 797.14 635.18 796.40 Z" />
<path fill="#9d8351" stroke="#9d8351" stroke-width="0.09375" opacity="1.00" d=" M 615.31 802.25 C 620.56 800.42 625.75 798.43 631.06 796.79 C 632.42 796.65 633.80 796.52 635.18 796.40 C 634.57 797.14 633.97 797.89 633.38 798.65 C 633.96 798.80 635.13 799.11 635.71 799.27 C 635.27 799.70 634.83 800.14 634.41 800.59 C 635.76 801.03 637.13 801.47 638.52 801.84 C 630.07 804.44 621.58 806.92 613.25 809.90 C 612.27 809.54 611.30 809.18 610.34 808.84 C 611.01 807.45 611.59 805.86 613.02 805.06 C 613.89 804.21 615.66 803.82 615.31 802.25 Z" />
<path fill="#ac8e58" stroke="#ac8e58" stroke-width="0.09375" opacity="1.00" d=" M 541.83 840.27 C 564.77 824.90 589.30 811.63 615.31 802.25 C 615.66 803.82 613.89 804.21 613.02 805.06 C 611.59 805.86 611.01 807.45 610.34 808.84 C 611.30 809.18 612.27 809.54 613.25 809.90 C 585.74 820.42 559.89 835.05 536.13 852.42 C 535.57 851.04 535.80 849.67 536.38 848.37 C 536.11 848.02 535.57 847.34 535.30 846.99 C 535.71 846.79 536.53 846.38 536.94 846.17 C 537.57 846.61 538.21 847.06 538.85 847.52 C 540.40 846.37 542.32 845.51 543.41 843.85 C 543.02 842.60 542.39 841.43 541.83 840.27 Z" />
<path fill="#b8985e" stroke="#b8985e" stroke-width="0.09375" opacity="1.00" d=" M 425.04 956.00 C 456.99 911.17 495.91 870.91 541.83 840.27 C 542.39 841.43 543.02 842.60 543.41 843.85 C 542.32 845.51 540.40 846.37 538.85 847.52 C 538.21 847.06 537.57 846.61 536.94 846.17 C 536.53 846.38 535.71 846.79 535.30 846.99 C 535.57 847.34 536.11 848.02 536.38 848.37 C 535.80 849.67 535.57 851.04 536.13 852.42 C 494.78 882.10 459.88 919.94 429.90 960.88 C 413.03 983.58 397.85 1007.46 381.57 1030.58 C 369.45 1047.90 357.39 1065.29 344.16 1081.79 C 350.77 1072.40 357.15 1062.85 363.17 1053.07 C 383.35 1020.44 402.39 987.02 425.04 956.00 Z" />
<path fill="#000101" stroke="#000101" stroke-width="0.09375" opacity="1.00" d=" M 789.23 864.02 C 789.44 861.14 788.66 857.96 790.35 855.42 C 790.86 862.12 790.98 868.92 790.24 875.61 C 788.21 872.06 789.45 867.87 789.23 864.02 Z" />
<path fill="#04050a" stroke="#04050a" stroke-width="0.09375" opacity="1.00" d=" M 753.01 872.25 C 756.85 871.96 761.00 872.76 764.52 870.79 C 765.03 871.09 766.05 871.68 766.56 871.98 L 766.91 873.63 C 760.28 873.13 753.63 873.43 747.00 873.34 C 739.71 873.11 732.54 874.78 725.25 874.43 L 725.79 873.59 C 729.01 872.79 732.45 873.24 735.72 872.52 C 741.42 871.29 747.24 872.58 753.01 872.25 Z" />
<path fill="#7b7c7f" stroke="#7b7c7f" stroke-width="0.09375" opacity="1.00" d=" M 766.56 871.98 C 767.92 872.70 769.27 873.41 770.61 874.20 C 769.38 874.59 768.13 874.70 766.87 874.53 C 759.00 873.68 751.03 873.25 743.14 874.09 C 737.03 874.77 730.87 874.59 724.76 875.21 L 725.25 874.43 C 732.54 874.78 739.71 873.11 747.00 873.34 C 753.63 873.43 760.28 873.13 766.91 873.63 L 766.56 871.98 Z" />
<path fill="#a78c58" stroke="#a78c58" stroke-width="0.09375" opacity="1.00" d=" M 290.31 946.41 C 291.76 946.57 293.26 946.97 294.65 946.29 C 297.81 948.01 300.93 949.81 304.14 951.46 C 302.89 954.76 299.99 956.92 297.58 959.34 C 294.98 958.28 292.38 957.19 289.83 956.02 C 289.13 952.81 289.40 949.54 290.31 946.41 Z" />
<path fill="#9b8150" stroke="#9b8150" stroke-width="0.09375" opacity="1.00" d=" M 297.58 959.34 C 299.99 956.92 302.89 954.76 304.14 951.46 C 308.88 953.82 313.51 956.36 318.17 958.87 C 316.09 960.34 315.66 962.95 317.49 964.83 C 317.08 965.09 316.25 965.61 315.84 965.87 C 309.69 963.88 303.51 961.94 297.58 959.34 Z" />
<path fill="#a88e5a" stroke="#a88e5a" stroke-width="0.09375" opacity="1.00" d=" M 318.17 958.87 C 335.68 967.39 353.54 975.27 371.97 981.57 C 373.38 982.02 374.61 982.86 375.86 983.65 C 362.15 980.27 348.56 976.42 335.03 972.38 C 328.67 970.10 322.27 967.92 315.84 965.87 C 316.25 965.61 317.08 965.09 317.49 964.83 C 315.66 962.95 316.09 960.34 318.17 958.87 Z" />
<path fill="#a68d5a" stroke="#a68d5a" stroke-width="0.09375" opacity="1.00" d=" M 302.99 972.76 C 318.54 979.79 334.53 985.80 350.46 991.91 C 356.28 994.25 362.34 995.96 367.95 998.83 C 361.11 996.67 354.00 995.57 347.18 993.35 C 331.90 989.49 317.00 984.31 301.94 979.71 C 304.66 979.10 303.21 976.35 302.58 974.68 C 302.68 974.20 302.89 973.24 302.99 972.76 Z" />
<path fill="#aa8d58" stroke="#aa8d58" stroke-width="0.09375" opacity="1.00" d=" M 632.94 1013.18 C 651.83 1005.90 670.61 997.90 687.79 987.11 C 684.38 990.29 680.59 993.02 676.79 995.70 C 657.87 1010.71 635.98 1021.45 613.66 1030.39 C 595.27 1037.35 576.25 1042.73 556.83 1045.91 C 538.11 1049.74 518.99 1050.65 499.95 1051.27 C 485.25 1050.65 470.55 1049.77 455.97 1047.77 C 444.28 1045.99 432.75 1043.32 421.01 1041.83 C 418.15 1041.79 415.21 1039.28 412.49 1041.05 C 412.23 1040.69 411.70 1039.98 411.44 1039.62 L 410.33 1039.91 C 411.11 1039.25 411.92 1038.63 412.74 1038.03 C 415.78 1041.52 420.87 1040.06 424.94 1040.61 C 435.90 1041.80 446.95 1041.40 457.96 1041.54 C 496.90 1041.57 535.87 1037.85 574.00 1029.88 C 593.91 1025.29 613.60 1019.75 632.94 1013.18 Z" />
</svg>
